<svg height="112" viewBox="0 0 606 112" width="606" xmlns="http://www.w3.org/2000/svg"><g fill="#14333a"><path d="m5.6 36v-11.08h7.72c5.08 0 8.04-3.6 8.04-7.8s-2.92-7.8-8.04-7.8h-10v26.68zm7.48-13.16h-7.48v-11.44h7.48c3.52 0 5.88 2.36 5.88 5.72s-2.36 5.72-5.88 5.72zm14.08 13.16v-14.08c.88-1.68 3.52-3.44 5.48-3.44.4 0 .68.04 1.04.08v-2.28c-2.68 0-4.88 1.56-6.52 3.72v-3.32h-2.08v19.32zm17.76.48c5.72 0 9.32-4.52 9.32-10.16s-3.6-10.12-9.32-10.12c-5.64 0-9.28 4.48-9.28 10.12s3.64 10.16 9.28 10.16zm0-1.88c-4.48 0-7.04-3.96-7.04-8.28 0-4.28 2.56-8.24 7.04-8.24 4.56 0 7.08 3.96 7.08 8.24 0 4.32-2.52 8.28-7.08 8.28zm14.72-21.2c.88 0 1.6-.72 1.6-1.6s-.72-1.6-1.6-1.6c-.84 0-1.6.72-1.6 1.6s.76 1.6 1.6 1.6zm-4.08 30.44c3.2 0 5.12-1.8 5.12-5.36v-21.8h-2.08v21.8c0 2.52-1.32 3.52-3.2 3.52-.64 0-1.16-.12-1.64-.32l-.4 1.8c.64.24 1.4.36 2.2.36zm19.16-7.36c3.2 0 5.64-1.12 7.56-3.12l-1.08-1.36c-1.68 1.76-3.88 2.68-6.36 2.68-4.52 0-7.32-3.48-7.52-7.68h16.16v-.56c0-5.56-3.24-10.24-9.12-10.24-5.36 0-9.32 4.52-9.32 10.12 0 5.96 4.04 10.16 9.68 10.16zm6.64-11.12h-14.04c.16-3.36 2.44-7.36 7-7.36 4.84 0 7 4.08 7.04 7.36zm10.68 11.12c1.6 0 2.52-.48 3.28-1.2l-.8-1.6c-.44.48-1.24.92-2.16.92-1.36 0-2-1.08-2-2.64v-13.4h3.92v-1.88h-3.92v-5.28h-2.12v5.28h-3.2v1.88h3.2v13.72c0 2.64 1.24 4.2 3.8 4.2zm11.52 0c2.68 0 4.84-.88 6.56-2.76v2.28h2.08v-13.6c0-4.32-3.12-6.2-7.08-6.2-3.16 0-5.4 1.08-7.4 3.28l1.16 1.4c1.76-2 3.64-2.84 6.04-2.84 2.88 0 5.2 1.6 5.2 4.44v3.92c-1.72-1.88-3.88-2.72-6.56-2.72-3.36 0-6.76 2.16-6.76 6.36 0 4.16 3.44 6.44 6.76 6.44zm.72-1.64c-3.2 0-5.28-2.04-5.28-4.76s2.08-4.8 5.28-4.8c2.32 0 4.48.92 5.84 2.68v4.24c-1.36 1.76-3.52 2.64-5.84 2.64zm15.48 1.16v-14.6c1.16-1.76 3.48-3.32 5.52-3.32 2.76 0 3.88 1.68 3.88 4.4v13.52h2.12v-14.64c1.08-1.76 3.44-3.28 5.52-3.28 2.72 0 3.88 1.68 3.88 4.4v13.52h2.08v-13.92c0-3.88-1.72-5.88-5.28-5.88-2.72 0-5.32 1.84-6.4 3.64-.48-1.88-2.08-3.64-5.08-3.64-2.8 0-5.44 2.16-6.24 3.4v-2.92h-2.08v19.32zm36.64.48c5.72 0 9.32-4.52 9.32-10.16s-3.6-10.12-9.32-10.12c-5.64 0-9.28 4.48-9.28 10.12s3.64 10.16 9.28 10.16zm0-1.88c-4.48 0-7.04-3.96-7.04-8.28 0-4.28 2.56-8.24 7.04-8.24 4.56 0 7.08 3.96 7.08 8.24 0 4.32-2.52 8.28-7.08 8.28zm19.44 1.88c4.8 0 7.24-2.56 7.24-5.68 0-4.12-3.72-5.04-7.04-5.88-2.68-.68-5.16-1.28-5.16-3.48 0-2 1.84-3.48 4.84-3.48 2.56 0 4.64 1.04 5.76 2.56l1.16-1.44c-1.4-1.6-3.6-2.88-6.92-2.88-4.4 0-6.88 2.4-6.88 5.36 0 3.76 3.56 4.6 6.76 5.4 2.8.72 5.44 1.44 5.44 3.92 0 2.24-1.92 3.84-5.16 3.84-2.76 0-5-1.28-6.24-2.84l-1.24 1.56c1.92 2.12 4.32 3.04 7.44 3.04zm23.04-.48v-14.6c1.16-1.76 3.48-3.32 5.52-3.32 2.76 0 3.88 1.68 3.88 4.4v13.52h2.12v-14.64c1.08-1.76 3.44-3.28 5.52-3.28 2.72 0 3.88 1.68 3.88 4.4v13.52h2.08v-13.92c0-3.88-1.72-5.88-5.28-5.88-2.72 0-5.32 1.84-6.4 3.64-.48-1.88-2.08-3.64-5.08-3.64-2.8 0-5.44 2.16-6.24 3.4v-2.92h-2.08v19.32zm34.2.48c2.68 0 4.84-.88 6.56-2.76v2.28h2.08v-13.6c0-4.32-3.12-6.2-7.08-6.2-3.16 0-5.4 1.08-7.4 3.28l1.16 1.4c1.76-2 3.64-2.84 6.04-2.84 2.88 0 5.2 1.6 5.2 4.44v3.92c-1.72-1.88-3.88-2.72-6.56-2.72-3.36 0-6.76 2.16-6.76 6.36 0 4.16 3.44 6.44 6.76 6.44zm.72-1.64c-3.2 0-5.28-2.04-5.28-4.76s2.08-4.8 5.28-4.8c2.32 0 4.48.92 5.84 2.68v4.24c-1.36 1.76-3.52 2.64-5.84 2.64zm15.48 1.16v-14.08c.88-1.68 3.52-3.44 5.48-3.44.4 0 .68.04 1.04.08v-2.28c-2.68 0-4.88 1.56-6.52 3.72v-3.32h-2.08v19.32zm17.88.48c3.32 0 5.28-1.32 6.84-3.32l-1.44-1.28c-1.44 1.92-3.16 2.72-5.28 2.72-4.52 0-7.28-3.64-7.28-8.28s2.76-8.24 7.28-8.24c2.12 0 3.84.76 5.28 2.68l1.44-1.28c-1.56-1.96-3.52-3.28-6.84-3.28-5.68 0-9.4 4.48-9.4 10.12s3.72 10.16 9.4 10.16zm16.2 0c2.68 0 4.84-.88 6.56-2.76v2.28h2.08v-13.6c0-4.32-3.12-6.2-7.08-6.2-3.16 0-5.4 1.08-7.4 3.28l1.16 1.4c1.76-2 3.64-2.84 6.04-2.84 2.88 0 5.2 1.6 5.2 4.44v3.92c-1.72-1.88-3.88-2.72-6.56-2.72-3.36 0-6.76 2.16-6.76 6.36 0 4.16 3.44 6.44 6.76 6.44zm.72-1.64c-3.2 0-5.28-2.04-5.28-4.76s2.08-4.8 5.28-4.8c2.32 0 4.48.92 5.84 2.68v4.24c-1.36 1.76-3.52 2.64-5.84 2.64zm19.16 1.64c4.8 0 7.24-2.56 7.24-5.68 0-4.12-3.72-5.04-7.04-5.88-2.68-.68-5.16-1.28-5.16-3.48 0-2 1.84-3.48 4.84-3.48 2.56 0 4.64 1.04 5.76 2.56l1.16-1.44c-1.4-1.6-3.6-2.88-6.92-2.88-4.4 0-6.88 2.4-6.88 5.36 0 3.76 3.56 4.6 6.76 5.4 2.8.72 5.44 1.44 5.44 3.92 0 2.24-1.92 3.84-5.16 3.84-2.76 0-5-1.28-6.24-2.84l-1.24 1.56c1.92 2.12 4.32 3.04 7.44 3.04zm28.48 0c2.88 0 5.36-1.56 6.72-3.56v3.08h2.12v-26.68h-2.12v10.48c-1.56-2.2-4-3.6-6.72-3.6-5.12 0-8.64 4.04-8.64 10.16 0 6.2 3.52 10.12 8.64 10.12zm.36-1.88c-4.28 0-6.76-3.56-6.76-8.24s2.48-8.28 6.76-8.28c2.72 0 5.24 1.64 6.36 3.52v9.56c-1.12 1.84-3.64 3.44-6.36 3.44zm22.52 1.88c3.2 0 5.64-1.12 7.56-3.12l-1.08-1.36c-1.68 1.76-3.88 2.68-6.36 2.68-4.52 0-7.32-3.48-7.52-7.68h16.16v-.56c0-5.56-3.24-10.24-9.12-10.24-5.36 0-9.32 4.52-9.32 10.12 0 5.96 4.04 10.16 9.68 10.16zm6.64-11.12h-14.04c.16-3.36 2.44-7.36 7-7.36 4.84 0 7 4.08 7.04 7.36zm17.92 18v-10.48c1.56 2.2 4 3.6 6.72 3.6 5.16 0 8.64-4 8.64-10.16 0-6.2-3.48-10.12-8.64-10.12-2.88 0-5.36 1.56-6.72 3.56v-3.08h-2.08v26.68zm6.36-8.76c-2.68 0-5.24-1.68-6.36-3.52v-9.52c1.12-1.88 3.68-3.48 6.36-3.48 4.32 0 6.76 3.56 6.76 8.24s-2.44 8.28-6.76 8.28zm15.44 1.4v-14.08c.88-1.68 3.52-3.44 5.48-3.44.4 0 .68.04 1.04.08v-2.28c-2.68 0-4.88 1.56-6.52 3.72v-3.32h-2.08v19.32zm17.76.48c5.72 0 9.32-4.52 9.32-10.16s-3.6-10.12-9.32-10.12c-5.64 0-9.28 4.48-9.28 10.12s3.64 10.16 9.28 10.16zm0-1.88c-4.48 0-7.04-3.96-7.04-8.28 0-4.28 2.56-8.24 7.04-8.24 4.56 0 7.08 3.96 7.08 8.24 0 4.32-2.52 8.28-7.08 8.28zm21.2 1.88c2.88 0 5.36-1.56 6.72-3.56v3.08h2.12v-26.68h-2.12v10.48c-1.56-2.2-4-3.6-6.72-3.6-5.12 0-8.64 4.04-8.64 10.16 0 6.2 3.52 10.12 8.64 10.12zm.36-1.88c-4.28 0-6.76-3.56-6.76-8.24s2.48-8.28 6.76-8.28c2.72 0 5.24 1.64 6.36 3.52v9.56c-1.12 1.84-3.64 3.44-6.36 3.44zm20.04 1.88c2.8 0 5.36-1.56 6.96-3.32v2.84h2.08v-19.32h-2.08v14.72c-1.28 1.72-3.8 3.2-6.28 3.2-2.8 0-4.68-1.04-4.68-4.8v-13.12h-2.08v13.6c0 4.36 2.12 6.2 6.08 6.2zm18.72 0c1.6 0 2.52-.48 3.28-1.2l-.8-1.6c-.44.48-1.24.92-2.16.92-1.36 0-2-1.08-2-2.64v-13.4h3.92v-1.88h-3.92v-5.28h-2.12v5.28h-3.2v1.88h3.2v13.72c0 2.64 1.24 4.2 3.8 4.2zm13.96 0c5.72 0 9.32-4.52 9.32-10.16s-3.6-10.12-9.32-10.12c-5.64 0-9.28 4.48-9.28 10.12s3.64 10.16 9.28 10.16zm0-1.88c-4.48 0-7.04-3.96-7.04-8.28 0-4.28 2.56-8.24 7.04-8.24 4.56 0 7.08 3.96 7.08 8.24 0 4.32-2.52 8.28-7.08 8.28zm19.44 1.88c4.8 0 7.24-2.56 7.24-5.68 0-4.12-3.72-5.04-7.04-5.88-2.68-.68-5.16-1.28-5.16-3.48 0-2 1.84-3.48 4.84-3.48 2.56 0 4.64 1.04 5.76 2.56l1.16-1.44c-1.4-1.6-3.6-2.88-6.92-2.88-4.4 0-6.88 2.4-6.88 5.36 0 3.76 3.56 4.6 6.76 5.4 2.8.72 5.44 1.44 5.44 3.92 0 2.24-1.92 3.84-5.16 3.84-2.76 0-5-1.28-6.24-2.84l-1.24 1.56c1.92 2.12 4.32 3.04 7.44 3.04z"/><path d="m35.112 98.736 3.248-2.8-3.528-3.808c3.248-3.472 5.096-8.288 5.096-13.776 0-11.032-7.504-19.32-18.536-19.32-11.088 0-18.536 8.288-18.536 19.32s7.448 19.32 18.536 19.32c3.864 0 7.28-1.008 10.136-2.8zm-13.72-5.208c-8.4 0-13.72-6.496-13.72-15.176 0-8.736 5.32-15.176 13.72-15.176 8.344 0 13.72 6.44 13.72 15.176 0 4.144-1.232 7.784-3.416 10.416l-5.264-5.656-3.248 2.744 5.32 5.768c-2.016 1.232-4.368 1.904-7.112 1.904zm32.272 4.144c4.032 0 7.56-2.128 9.632-4.48v3.808h4.2v-27.048h-4.2v19.88c-1.568 2.184-4.704 4.088-8.008 4.088-3.64 0-6.048-1.4-6.048-6.16v-17.808h-4.2v19.096c0 5.88 2.968 8.624 8.624 8.624zm32.44 0c4.424 0 8.064-1.456 10.752-4.144l-2.016-2.744c-2.128 2.184-5.264 3.416-8.344 3.416-5.824 0-9.408-4.256-9.744-9.352h21.896v-1.064c0-8.12-4.816-14.504-12.992-14.504-7.728 0-13.328 6.328-13.328 14.168 0 8.456 5.768 14.224 13.776 14.224zm8.4-15.904h-17.752c.224-4.144 3.08-9.016 8.848-9.016 6.16 0 8.848 4.984 8.904 9.016zm28.2 15.904c2.464 0 3.976-.728 5.04-1.736l-1.232-3.136c-.56.616-1.68 1.12-2.856 1.12-1.848 0-2.744-1.456-2.744-3.472v-16.8h5.488v-3.696h-5.488v-7.392h-4.2v7.392h-4.48v3.696h4.48v17.696c0 4.032 2.016 6.328 5.992 6.328zm11.832-.672v-19.152c1.232-2.184 4.76-4.312 7.336-4.312.672 0 1.176.056 1.68.168v-4.312c-3.696 0-6.832 2.072-9.016 4.928v-4.368h-4.2v27.048zm20.232.672c3.64 0 6.72-1.288 8.96-3.752v3.08h4.2v-18.592c0-6.552-4.76-9.128-10.472-9.128-4.424 0-7.896 1.456-10.808 4.48l1.96 2.912c2.408-2.576 5.04-3.752 8.288-3.752 3.92 0 6.832 2.072 6.832 5.712v4.872c-2.184-2.52-5.264-3.696-8.96-3.696-4.592 0-9.464 2.856-9.464 8.904 0 5.88 4.872 8.96 9.464 8.96zm1.512-3.024c-3.92 0-6.664-2.464-6.664-5.88 0-3.472 2.744-5.936 6.664-5.936 2.968 0 5.824 1.12 7.448 3.36v5.096c-1.624 2.24-4.48 3.36-7.448 3.36zm22.248 2.352v-19.768c1.568-2.184 4.704-4.2 8.008-4.2 3.64 0 6.048 1.512 6.048 6.272v17.696h4.2v-18.984c0-5.88-2.968-8.736-8.624-8.736-4.032 0-7.728 2.352-9.632 4.592v-3.92h-4.2v27.048zm33.224.672c7 0 10.64-3.64 10.64-8.176 0-5.992-5.432-7.336-10.136-8.4-3.528-.84-6.608-1.68-6.608-4.312 0-2.408 2.296-4.088 5.992-4.088 3.472 0 6.44 1.456 8.064 3.416l1.96-2.912c-2.184-2.184-5.432-3.92-10.024-3.92-6.44 0-10.08 3.584-10.08 7.784 0 5.6 5.208 6.832 9.8 7.896 3.64.896 6.944 1.848 6.944 4.816 0 2.632-2.24 4.48-6.384 4.48-3.696 0-7.112-1.792-8.904-3.864l-2.184 3.024c2.744 2.912 6.496 4.256 10.92 4.256zm19.672-.672v-19.768c1.456-2.184 4.368-4.2 7.112-4.2 3.528 0 4.984 2.184 4.984 5.6v18.368h4.2v-19.824c1.4-2.128 4.368-4.144 7.168-4.144 3.472 0 4.984 2.184 4.984 5.6v18.368h4.2v-19.544c0-5.432-2.632-8.176-7.56-8.176-3.92 0-7.56 2.576-9.072 5.04-.784-2.8-3.136-5.04-7.28-5.04-3.976 0-7.616 2.856-8.736 4.592v-3.92h-4.2v27.048zm41.12-31.584c1.568 0 2.856-1.288 2.856-2.856s-1.288-2.8-2.856-2.8c-1.512 0-2.8 1.232-2.8 2.8s1.288 2.856 2.8 2.856zm2.128 31.584v-27.048h-4.2v27.048zm13.232.672c2.464 0 3.976-.728 5.04-1.736l-1.232-3.136c-.56.616-1.68 1.12-2.856 1.12-1.848 0-2.744-1.456-2.744-3.472v-16.8h5.488v-3.696h-5.488v-7.392h-4.2v7.392h-4.48v3.696h4.48v17.696c0 4.032 2.016 6.328 5.992 6.328zm19.84 0c4.424 0 8.064-1.456 10.752-4.144l-2.016-2.744c-2.128 2.184-5.264 3.416-8.344 3.416-5.824 0-9.408-4.256-9.744-9.352h21.896v-1.064c0-8.12-4.816-14.504-12.992-14.504-7.728 0-13.328 6.328-13.328 14.168 0 8.456 5.768 14.224 13.776 14.224zm8.4-15.904h-17.752c.224-4.144 3.08-9.016 8.848-9.016 6.16 0 8.848 4.984 8.904 9.016zm13.12 15.232v-19.768c1.456-2.184 4.368-4.2 7.112-4.2 3.528 0 4.984 2.184 4.984 5.6v18.368h4.2v-19.824c1.4-2.128 4.368-4.144 7.168-4.144 3.472 0 4.984 2.184 4.984 5.6v18.368h4.2v-19.544c0-5.432-2.632-8.176-7.56-8.176-3.92 0-7.56 2.576-9.072 5.04-.784-2.8-3.136-5.04-7.28-5.04-3.976 0-7.616 2.856-8.736 4.592v-3.92h-4.2v27.048zm56.872 0v-23.352h5.488v-3.696h-5.488v-2.072c0-3.416 1.512-5.32 4.256-5.32.952 0 1.736.224 2.408.616l1.064-3.136c-1.064-.672-2.52-.952-4.088-.952-4.704 0-7.84 3.192-7.84 8.792v2.072h-4.48v3.696h4.48v23.352zm20.68.672c4.424 0 8.064-1.456 10.752-4.144l-2.016-2.744c-2.128 2.184-5.264 3.416-8.344 3.416-5.824 0-9.408-4.256-9.744-9.352h21.896v-1.064c0-8.12-4.816-14.504-12.992-14.504-7.728 0-13.328 6.328-13.328 14.168 0 8.456 5.768 14.224 13.776 14.224zm8.4-15.904h-17.752c.224-4.144 3.08-9.016 8.848-9.016 6.16 0 8.848 4.984 8.904 9.016zm13.12 15.232v-37.352h-4.2v37.352zm8.472-31.584c1.568 0 2.856-1.288 2.856-2.856s-1.288-2.8-2.856-2.8c-1.512 0-2.8 1.232-2.8 2.8s1.288 2.856 2.8 2.856zm2.128 31.584v-27.048h-4.2v27.048zm18.328.672c4.928 0 7.84-2.016 9.912-4.704l-2.8-2.576c-1.792 2.408-4.088 3.528-6.888 3.528-5.768 0-9.352-4.48-9.352-10.472s3.584-10.416 9.352-10.416c2.8 0 5.096 1.064 6.888 3.528l2.8-2.576c-2.072-2.688-4.984-4.704-9.912-4.704-8.064 0-13.496 6.16-13.496 14.168 0 8.064 5.432 14.224 13.496 14.224zm15.864-32.256c1.568 0 2.856-1.288 2.856-2.856s-1.288-2.8-2.856-2.8c-1.512 0-2.8 1.232-2.8 2.8s1.288 2.856 2.8 2.856zm2.128 31.584v-27.048h-4.2v27.048zm16.872.672c3.808 0 7.112-1.96 9.128-4.704v4.032h4.2v-37.352h-4.2v14.392c-2.184-2.968-5.488-4.76-9.128-4.76-7.112 0-12.04 5.6-12.04 14.224 0 8.792 4.984 14.168 12.04 14.168zm1.008-3.752c-5.432 0-8.68-4.424-8.68-10.416s3.248-10.472 8.68-10.472c3.36 0 6.608 2.016 8.12 4.368v12.264c-1.512 2.352-4.76 4.256-8.12 4.256zm26.672 3.752c3.64 0 6.72-1.288 8.96-3.752v3.08h4.2v-18.592c0-6.552-4.76-9.128-10.472-9.128-4.424 0-7.896 1.456-10.808 4.48l1.96 2.912c2.408-2.576 5.04-3.752 8.288-3.752 3.92 0 6.832 2.072 6.832 5.712v4.872c-2.184-2.52-5.264-3.696-8.96-3.696-4.592 0-9.464 2.856-9.464 8.904 0 5.88 4.872 8.96 9.464 8.96zm1.512-3.024c-3.92 0-6.664-2.464-6.664-5.88 0-3.472 2.744-5.936 6.664-5.936 2.968 0 5.824 1.12 7.448 3.36v5.096c-1.624 2.24-4.48 3.36-7.448 3.36zm28.52 3.024c3.808 0 7.112-1.96 9.128-4.704v4.032h4.2v-37.352h-4.2v14.392c-2.184-2.968-5.488-4.76-9.128-4.76-7.112 0-12.04 5.6-12.04 14.224 0 8.792 4.984 14.168 12.04 14.168zm1.008-3.752c-5.432 0-8.68-4.424-8.68-10.416s3.248-10.472 8.68-10.472c3.36 0 6.608 2.016 8.12 4.368v12.264c-1.512 2.352-4.76 4.256-8.12 4.256zm30.928 3.752c4.424 0 8.064-1.456 10.752-4.144l-2.016-2.744c-2.128 2.184-5.264 3.416-8.344 3.416-5.824 0-9.408-4.256-9.744-9.352h21.896v-1.064c0-8.12-4.816-14.504-12.992-14.504-7.728 0-13.328 6.328-13.328 14.168 0 8.456 5.768 14.224 13.776 14.224zm8.4-15.904h-17.752c.224-4.144 3.08-9.016 8.848-9.016 6.16 0 8.848 4.984 8.904 9.016zm12.896 4.76.896-26.88h-5.264l.896 26.88zm-1.736 11.032c1.68 0 3.08-1.456 3.08-3.08 0-1.68-1.4-3.08-3.08-3.08s-3.08 1.4-3.08 3.08c0 1.624 1.4 3.08 3.08 3.08z"/></g></svg>