<svg height="112" viewBox="0 0 536 112" width="536" xmlns="http://www.w3.org/2000/svg"><g fill="#14333a"><path d="m5.6 36v-12.64h14.36v-2.08h-14.36v-9.88h14.64v-2.08h-16.92v26.68zm20.4 0v-14.08c.88-1.68 3.52-3.44 5.48-3.44.4 0 .68.04 1.04.08v-2.28c-2.68 0-4.88 1.56-6.52 3.72v-3.32h-2.08v19.32zm15.32.48c2.68 0 4.84-.88 6.56-2.76v2.28h2.08v-13.6c0-4.32-3.12-6.2-7.08-6.2-3.16 0-5.4 1.08-7.4 3.28l1.16 1.4c1.76-2 3.64-2.84 6.04-2.84 2.88 0 5.2 1.6 5.2 4.44v3.92c-1.72-1.88-3.88-2.72-6.56-2.72-3.36 0-6.76 2.16-6.76 6.36 0 4.16 3.44 6.44 6.76 6.44zm.72-1.64c-3.2 0-5.28-2.04-5.28-4.76s2.08-4.8 5.28-4.8c2.32 0 4.48.92 5.84 2.68v4.24c-1.36 1.76-3.52 2.64-5.84 2.64zm15.48 1.16v-14.6c1.24-1.72 3.8-3.32 6.28-3.32 2.8 0 4.68 1.12 4.68 4.88v13.04h2.08v-13.52c0-4.36-2.16-6.28-6.08-6.28-2.8 0-5.56 1.72-6.96 3.4v-2.92h-2.08v19.32zm34.88 7.36v-26.68h-2.12v3.08c-1.36-2-3.84-3.56-6.72-3.56-5.16 0-8.64 3.92-8.64 10.12 0 6.16 3.48 10.16 8.64 10.16 2.72 0 5.16-1.4 6.72-3.6v10.48zm-8.48-8.76c-4.28 0-6.76-3.6-6.76-8.28s2.48-8.24 6.76-8.24c2.68 0 5.24 1.6 6.36 3.48v9.52c-1.12 1.84-3.68 3.52-6.36 3.52zm20 1.88c2.8 0 5.36-1.56 6.96-3.32v2.84h2.08v-19.32h-2.08v14.72c-1.28 1.72-3.8 3.2-6.28 3.2-2.8 0-4.68-1.04-4.68-4.8v-13.12h-2.08v13.6c0 4.36 2.12 6.2 6.08 6.2zm15.56-23.08c.88 0 1.6-.72 1.6-1.6s-.72-1.6-1.6-1.6c-.84 0-1.6.72-1.6 1.6s.76 1.6 1.6 1.6zm1.04 22.6v-19.32h-2.08v19.32zm14.04.48c3.2 0 5.64-1.12 7.56-3.12l-1.08-1.36c-1.68 1.76-3.88 2.68-6.36 2.68-4.52 0-7.32-3.48-7.52-7.68h16.16v-.56c0-5.56-3.24-10.24-9.12-10.24-5.36 0-9.32 4.52-9.32 10.12 0 5.96 4.04 10.16 9.68 10.16zm6.64-11.12h-14.04c.16-3.36 2.44-7.36 7-7.36 4.84 0 7 4.08 7.04 7.36zm14.04 1.92v-1.92h-9.6v1.92zm9.2 9.2c4.8 0 7.24-2.56 7.24-5.68 0-4.12-3.72-5.04-7.04-5.88-2.68-.68-5.16-1.28-5.16-3.48 0-2 1.84-3.48 4.84-3.48 2.56 0 4.64 1.04 5.76 2.56l1.16-1.44c-1.4-1.6-3.6-2.88-6.92-2.88-4.4 0-6.88 2.4-6.88 5.36 0 3.76 3.56 4.6 6.76 5.4 2.8.72 5.44 1.44 5.44 3.92 0 2.24-1.92 3.84-5.16 3.84-2.76 0-5-1.28-6.24-2.84l-1.24 1.56c1.92 2.12 4.32 3.04 7.44 3.04zm20.16 0c3.2 0 5.64-1.12 7.56-3.12l-1.08-1.36c-1.68 1.76-3.88 2.68-6.36 2.68-4.52 0-7.32-3.48-7.52-7.68h16.16v-.56c0-5.56-3.24-10.24-9.12-10.24-5.36 0-9.32 4.52-9.32 10.12 0 5.96 4.04 10.16 9.68 10.16zm6.64-11.12h-14.04c.16-3.36 2.44-7.36 7-7.36 4.84 0 7 4.08 7.04 7.36zm24.12 11.12c3.32 0 5.28-1.32 6.84-3.32l-1.44-1.28c-1.44 1.92-3.16 2.72-5.28 2.72-4.52 0-7.28-3.64-7.28-8.28s2.76-8.24 7.28-8.24c2.12 0 3.84.76 5.28 2.68l1.44-1.28c-1.56-1.96-3.52-3.28-6.84-3.28-5.68 0-9.4 4.48-9.4 10.12s3.72 10.16 9.4 10.16zm18.64 0c5.72 0 9.32-4.52 9.32-10.16s-3.6-10.12-9.32-10.12c-5.64 0-9.28 4.48-9.28 10.12s3.64 10.16 9.28 10.16zm0-1.88c-4.48 0-7.04-3.96-7.04-8.28 0-4.28 2.56-8.24 7.04-8.24 4.56 0 7.08 3.96 7.08 8.24 0 4.32-2.52 8.28-7.08 8.28zm15.76 1.4v-14.6c1.24-1.72 3.8-3.32 6.28-3.32 2.8 0 4.68 1.12 4.68 4.88v13.04h2.08v-13.52c0-4.36-2.16-6.28-6.08-6.28-2.8 0-5.56 1.72-6.96 3.4v-2.92h-2.08v19.32zm26.68.48c5.72 0 9.32-4.52 9.32-10.16s-3.6-10.12-9.32-10.12c-5.64 0-9.28 4.48-9.28 10.12s3.64 10.16 9.28 10.16zm0-1.88c-4.48 0-7.04-3.96-7.04-8.28 0-4.28 2.56-8.24 7.04-8.24 4.56 0 7.08 3.96 7.08 8.24 0 4.32-2.52 8.28-7.08 8.28zm19.44 1.88c4.8 0 7.24-2.56 7.24-5.68 0-4.12-3.72-5.04-7.04-5.88-2.68-.68-5.16-1.28-5.16-3.48 0-2 1.84-3.48 4.84-3.48 2.56 0 4.64 1.04 5.76 2.56l1.16-1.44c-1.4-1.6-3.6-2.88-6.92-2.88-4.4 0-6.88 2.4-6.88 5.36 0 3.76 3.56 4.6 6.76 5.4 2.8.72 5.44 1.44 5.44 3.92 0 2.24-1.92 3.84-5.16 3.84-2.76 0-5-1.28-6.24-2.84l-1.24 1.56c1.92 2.12 4.32 3.04 7.44 3.04zm19.88 0c3.32 0 5.28-1.32 6.84-3.32l-1.44-1.28c-1.44 1.92-3.16 2.72-5.28 2.72-4.52 0-7.28-3.64-7.28-8.28s2.76-8.24 7.28-8.24c2.12 0 3.84.76 5.28 2.68l1.44-1.28c-1.56-1.96-3.52-3.28-6.84-3.28-5.68 0-9.4 4.48-9.4 10.12s3.72 10.16 9.4 10.16zm18.64 0c5.72 0 9.32-4.52 9.32-10.16s-3.6-10.12-9.32-10.12c-5.64 0-9.28 4.48-9.28 10.12s3.64 10.16 9.28 10.16zm0-1.88c-4.48 0-7.04-3.96-7.04-8.28 0-4.28 2.56-8.24 7.04-8.24 4.56 0 7.08 3.96 7.08 8.24 0 4.32-2.52 8.28-7.08 8.28zm31.6 1.88c3.2 0 5.64-1.12 7.56-3.12l-1.08-1.36c-1.68 1.76-3.88 2.68-6.36 2.68-4.52 0-7.32-3.48-7.52-7.68h16.16v-.56c0-5.56-3.24-10.24-9.12-10.24-5.36 0-9.32 4.52-9.32 10.12 0 5.96 4.04 10.16 9.68 10.16zm6.64-11.12h-14.04c.16-3.36 2.44-7.36 7-7.36 4.84 0 7 4.08 7.04 7.36z"/><path d="m21.896 97.672c6.776 0 11.256-3.136 14.392-7.392l-3.976-2.184c-2.128 3.192-5.992 5.432-10.416 5.432-8.008 0-14.224-6.328-14.224-15.176 0-8.904 6.216-15.176 14.224-15.176 4.424 0 8.288 2.296 10.416 5.432l3.92-2.184c-2.968-4.2-7.56-7.392-14.336-7.392-10.584 0-19.04 7.84-19.04 19.32s8.456 19.32 19.04 19.32zm29.976 0c8.232 0 13.384-6.384 13.384-14.224s-5.152-14.168-13.384-14.168-13.384 6.328-13.384 14.168 5.152 14.224 13.384 14.224zm0-3.752c-5.768 0-9.016-4.928-9.016-10.472 0-5.488 3.248-10.416 9.016-10.416s8.96 4.928 8.96 10.416c0 5.544-3.192 10.472-8.96 10.472zm22.416 3.08v-19.768c1.568-2.184 4.704-4.2 8.008-4.2 3.64 0 6.048 1.512 6.048 6.272v17.696h4.2v-18.984c0-5.88-2.968-8.736-8.624-8.736-4.032 0-7.728 2.352-9.632 4.592v-3.92h-4.2v27.048zm48.4 10.304v-37.352h-4.2v4.032c-1.96-2.744-5.264-4.704-9.072-4.704-7.112 0-12.04 5.376-12.04 14.168 0 8.736 4.928 14.224 12.04 14.224 3.64 0 6.888-1.736 9.072-4.76v14.392zm-12.264-13.384c-5.432 0-8.68-4.48-8.68-10.472s3.248-10.416 8.68-10.416c3.36 0 6.608 1.96 8.064 4.312v12.208c-1.456 2.352-4.704 4.368-8.064 4.368zm27.288 3.752c4.032 0 7.56-2.128 9.632-4.48v3.808h4.2v-27.048h-4.2v19.88c-1.568 2.184-4.704 4.088-8.008 4.088-3.64 0-6.048-1.4-6.048-6.16v-17.808h-4.2v19.096c0 5.88 2.968 8.624 8.624 8.624zm22.304-32.256c1.568 0 2.856-1.288 2.856-2.856s-1.288-2.8-2.856-2.8c-1.512 0-2.8 1.232-2.8 2.8s1.288 2.856 2.8 2.856zm2.128 31.584v-27.048h-4.2v27.048zm14.968.672c7 0 10.64-3.64 10.64-8.176 0-5.992-5.432-7.336-10.136-8.4-3.528-.84-6.608-1.68-6.608-4.312 0-2.408 2.296-4.088 5.992-4.088 3.472 0 6.44 1.456 8.064 3.416l1.96-2.912c-2.184-2.184-5.432-3.92-10.024-3.92-6.44 0-10.08 3.584-10.08 7.784 0 5.6 5.208 6.832 9.8 7.896 3.64.896 6.944 1.848 6.944 4.816 0 2.632-2.24 4.48-6.384 4.48-3.696 0-7.112-1.792-8.904-3.864l-2.184 3.024c2.744 2.912 6.496 4.256 10.92 4.256zm22.304 0c2.464 0 3.976-.728 5.04-1.736l-1.232-3.136c-.56.616-1.68 1.12-2.856 1.12-1.848 0-2.744-1.456-2.744-3.472v-16.8h5.488v-3.696h-5.488v-7.392h-4.2v7.392h-4.48v3.696h4.48v17.696c0 4.032 2.016 6.328 5.992 6.328zm19.84 0c4.424 0 8.064-1.456 10.752-4.144l-2.016-2.744c-2.128 2.184-5.264 3.416-8.344 3.416-5.824 0-9.408-4.256-9.744-9.352h21.896v-1.064c0-8.12-4.816-14.504-12.992-14.504-7.728 0-13.328 6.328-13.328 14.168 0 8.456 5.768 14.224 13.776 14.224zm8.4-15.904h-17.752c.224-4.144 3.08-9.016 8.848-9.016 6.16 0 8.848 4.984 8.904 9.016zm29.936 15.904c7 0 10.64-3.64 10.64-8.176 0-5.992-5.432-7.336-10.136-8.4-3.528-.84-6.608-1.68-6.608-4.312 0-2.408 2.296-4.088 5.992-4.088 3.472 0 6.44 1.456 8.064 3.416l1.96-2.912c-2.184-2.184-5.432-3.92-10.024-3.92-6.44 0-10.08 3.584-10.08 7.784 0 5.6 5.208 6.832 9.8 7.896 3.64.896 6.944 1.848 6.944 4.816 0 2.632-2.24 4.48-6.384 4.48-3.696 0-7.112-1.792-8.904-3.864l-2.184 3.024c2.744 2.912 6.496 4.256 10.92 4.256zm27.68 0c4.424 0 8.064-1.456 10.752-4.144l-2.016-2.744c-2.128 2.184-5.264 3.416-8.344 3.416-5.824 0-9.408-4.256-9.744-9.352h21.896v-1.064c0-8.12-4.816-14.504-12.992-14.504-7.728 0-13.328 6.328-13.328 14.168 0 8.456 5.768 14.224 13.776 14.224zm8.4-15.904h-17.752c.224-4.144 3.08-9.016 8.848-9.016 6.16 0 8.848 4.984 8.904 9.016zm17.544 15.904c4.032 0 7.56-2.128 9.632-4.48v3.808h4.2v-27.048h-4.2v19.88c-1.568 2.184-4.704 4.088-8.008 4.088-3.64 0-6.048-1.4-6.048-6.16v-17.808h-4.2v19.096c0 5.88 2.968 8.624 8.624 8.624zm43.152 0c3.808 0 7.112-1.96 9.128-4.704v4.032h4.2v-37.352h-4.2v14.392c-2.184-2.968-5.488-4.76-9.128-4.76-7.112 0-12.04 5.6-12.04 14.224 0 8.792 4.984 14.168 12.04 14.168zm1.008-3.752c-5.432 0-8.68-4.424-8.68-10.416s3.248-10.472 8.68-10.472c3.36 0 6.608 2.016 8.12 4.368v12.264c-1.512 2.352-4.76 4.256-8.12 4.256zm20.792-28.504c1.568 0 2.856-1.288 2.856-2.856s-1.288-2.8-2.856-2.8c-1.512 0-2.8 1.232-2.8 2.8s1.288 2.856 2.8 2.856zm2.128 31.584v-27.048h-4.2v27.048zm10.6 0v-19.768c1.568-2.184 4.704-4.2 8.008-4.2 3.64 0 6.048 1.512 6.048 6.272v17.696h4.2v-18.984c0-5.88-2.968-8.736-8.624-8.736-4.032 0-7.728 2.352-9.632 4.592v-3.92h-4.2v27.048zm28.856 0v-19.768c1.624-2.184 4.76-4.2 8.008-4.2 3.64 0 6.104 1.4 6.104 6.16v17.808h4.2v-19.096c0-5.88-2.968-8.624-8.624-8.624-4.088 0-7.784 2.352-9.688 4.592v-14.224h-4.2v37.352zm36.92.672c4.424 0 8.064-1.456 10.752-4.144l-2.016-2.744c-2.128 2.184-5.264 3.416-8.344 3.416-5.824 0-9.408-4.256-9.744-9.352h21.896v-1.064c0-8.12-4.816-14.504-12.992-14.504-7.728 0-13.328 6.328-13.328 14.168 0 8.456 5.768 14.224 13.776 14.224zm8.4-15.904h-17.752c.224-4.144 3.08-9.016 8.848-9.016 6.16 0 8.848 4.984 8.904 9.016zm10.992-16.352c1.568 0 2.856-1.288 2.856-2.856s-1.288-2.8-2.856-2.8c-1.512 0-2.8 1.232-2.8 2.8s1.288 2.856 2.8 2.856zm2.128 31.584v-27.048h-4.2v27.048zm10.6 0v-19.152c1.232-2.184 4.76-4.312 7.336-4.312.672 0 1.176.056 1.68.168v-4.312c-3.696 0-6.832 2.072-9.016 4.928v-4.368h-4.2v27.048zm24.096.672c8.232 0 13.384-6.384 13.384-14.224s-5.152-14.168-13.384-14.168-13.384 6.328-13.384 14.168 5.152 14.224 13.384 14.224zm0-3.752c-5.768 0-9.016-4.928-9.016-10.472 0-5.488 3.248-10.416 9.016-10.416s8.96 4.928 8.96 10.416c0 5.544-3.192 10.472-8.96 10.472zm22.192-7.392.896-26.88h-5.264l.896 26.88zm-1.736 11.032c1.68 0 3.08-1.456 3.08-3.08 0-1.68-1.4-3.08-3.08-3.08s-3.08 1.4-3.08 3.08c0 1.624 1.4 3.08 3.08 3.08z"/></g></svg>