<svg height="90" viewBox="0 0 84 90" width="84" xmlns="http://www.w3.org/2000/svg"><path d="m72.8810208 71.2809945.1173792.0639275.1369634.0850395c.6686362.444725 1.0917291 1.1774877 1.1420038 1.9786869l.0050464.1610872v32.5627664c0 1.418413-1.1496136 2.568786-2.5680272 2.568786-1.3711331 0-2.4917971-1.074959-2.5649845-2.427871l-.0038019-.140915v-32.5627664c0-1.9323365 2.0443377-3.156153 3.7354208-2.2887411zm10.2736282 5.9317743.1173781.063977c.7482449.4316522 1.2260975 1.2083572 1.2797264 2.0636002l.0050465.1612133v26.6309427c0 1.418413-1.1496136 2.568786-2.5687864 2.568786-1.3711331 0-2.4910876-1.074959-2.5642277-2.427871l-.0037995-.140915v-26.6309427c0-1.9323365 2.0436125-3.1568782 3.7346626-2.2887905zm9.1204373 5.6482345c.4247695.0014466.8603822.1104755 1.2713273.3475662.7482448.4323669 1.2260975 1.2091139 1.2797264 2.0637263l.0050464.1610873v20.6991189c0 1.40211-1.1240795 2.542305-2.5199832 2.568332l-.0488032.000454c-1.3711331 0-2.4917971-1.074959-2.5649845-2.427871l-.0038019-.140915v-20.6991189c0-1.482956 1.2040474-2.548617 2.5284356-2.5720017zm-30.8481059 13.4502841c1.3454366-.0046728 2.581806 1.0699975 2.581806 2.5727262 0 .8633044-.4338382 1.6654004-1.1476831 2.1391414l-.1370897.084913-12.5546305 7.248488c-.3697499.213649-.7865231.331889-1.212873.343743l-.0711406.000989c-2.5810848 0-3.5266187-3.356065-1.4036244-4.720428l.1188515-.072413 12.5546305-7.249247c.393997-.2273866.8106087-.3370805 1.2185899-.3471342zm41.1224926-7.5187761c.424769.0014853.860382.110609 1.271327.3478819.74753.4316523 1.225341 1.2083573 1.278967 2.0636002l.005047.1612134v14.7672952c0 1.40211-1.123338 2.542305-2.519958 2.568332l-.048829.000454c-1.371133 0-2.491087-1.074959-2.5642276-2.427871l-.0037994-.140915v-14.7672952c0-1.482956 1.204047-2.5490441 2.528436-2.5723221zm-38.5406866-1.7721452c0 .8633045-.4338382 1.6654008-1.1476831 2.1397741l-.1370897.0850395-32.6273085 18.8372613c-.6773153.390291-1.4958644.451796-2.2232949.165532-1.9568247-.768779-2.1978271-3.4151-.4685775-4.538535l.1238453-.075865 32.6265491-18.8372611c1.7130305-.9886373 3.8535593.2467796 3.8535593 2.2240542zm26.8814004-1.6614011-.0014334.0372613-.0004732.0371568-.0000455 20.6836939.002688.099755.0021109.031453c.0573997.693311.6304635 1.237841 1.3296573 1.257771l.0397091.000565c.7453083 0 1.3524791-.594095 1.373554-1.334327l.0005658-.039792-.0001038-20.6807687-.0037333-.1176746-.0024965-.0326094c-.0409401-.4247931-.2781261-.8080233-.642017-1.0347951l-.0387706-.0232893c-.8944097-.5160208-2.0070386.101914-2.0592118 1.1156001zm-30.0725337 12.2994553-.0326091.0171906-.0324324.0181712-12.5466809 7.2446069-.083328.050774-.0285141.018905c-1.0795058.735104-.5766323 2.463183.7504008 2.498019l.0408801.000534c.2232973 0 .4432808-.054821.6413621-.159608l.0453139-.025066 12.5369678-7.238384.1028907-.063766.0263531-.018023c.3475853-.24777.5608041-.6443811.5750956-1.0718477l.0007671-.0459127c0-1.0329056-1.0919622-1.6877089-1.9964667-1.2255933zm40.3469199-6.3676485-.001433.0372698-.000473.0371652v14.7518702l.002688.103488.002064.027772c.057369.693497.62996 1.237798 1.328912 1.257719l.039696.000565c.745743 0 1.352495-.593789 1.373555-1.334311l.000565-.039808-.000046-14.74895-.003733-.1170773-.002558-.0334301c-.040933-.4251848-.277921-.8082749-.641028-1.0344514l-.039341-.0236032c-.894057-.5162136-2.006694.1018645-2.058868 1.1157818zm-37.1557866-16.1340532c0 .8640192-.4338382 1.6661575-1.1476831 2.1399003l-.1370897.0849133-35.9592136 20.7606237c-1.6733559.9669104-3.7557244-.1917394-3.8495132-2.0904059l-.0032868-.1336483.0050465-.1612134c.0502771-.8017902.4734071-1.534553 1.1426367-1.9786868l.1370897-.0849134 35.9584542-20.7606237c1.7130305-.9893966 3.8535593.2467797 3.8535593 2.2240542zm-38.5153137-1.1676164.0531501.0007611c.4078776.0101572.8243548.1199856 1.2181772.3475469l6.4891661 3.7457356c1.7122712.9893966 1.7122712 3.4602305 0 4.4488678-.7950102.4593898-1.7737763.4593898-2.5687864 0l-6.4884068-3.7457356c-.7950102-.4586305-1.2847729-1.3067933-1.2847729-2.2248136 0-1.4829559 1.2040475-2.5490441 2.5284356-2.5720017zm49.9219517-13.1054902.1510027.0806185 28.2543729 16.3125153c.794251.4593898 1.284014 1.3075525 1.284014 2.2248135 0 1.9323365-2.044338 3.156153-3.735421 2.2887411l-.117379-.0639275-28.253614-16.3125153c-1.7122712-.9886373-1.7122712-3.4602305 0-4.4488678.7446102-.4306779 1.6520593-.4575953 2.4170244-.0813778zm-51.3087577 15.6778524c0 .4757698.2458378.9163567.6479945 1.1665638l.0394034.0236141 6.4888294 3.7459797c.4251854.2456897.9481723.2456897 1.3737129-.0002052.9031975-.5214914.9157419-1.8138736.0377482-2.3571019l-.0376283-.0225032-6.48963-3.7460035c-.9155747-.5290438-2.0604301.1319351-2.0604301 1.1896562zm2.6581333-14.0877017 16.7635525 9.6783187c1.7122712.9886372 1.7122712 3.4594711 0 4.4488678-.7950101.4586305-1.7737762.4586305-2.5687864 0l-16.7627932-9.6783187c-.7950102-.4586305-1.2847729-1.3067932-1.2847729-2.2248136 0-1.9772745 2.1405288-3.2126915 3.8528-2.2240542zm0-11.8636474 27.0371797 15.6101423c1.7122711.9886373 1.7130305 3.4594712 0 4.4488678-.7950102.4586305-1.7737763.4586305-2.5687865 0l-27.0364203-15.6101423c-.7950102-.4586306-1.2847729-1.3067933-1.2847729-2.2248136 0-1.9772746 2.1405288-3.2126915 3.8528-2.2240542zm58.9250108 4.3422987.1510028.0807521 17.9799864 10.3806915c.794251.4586305 1.284014 1.3060339 1.284014 2.2240543 0 1.9323365-2.044338 3.1568782-3.735421 2.2887905l-.117379-.063977-17.9792276-10.3806915c-1.7130305-.9886373-1.7130305-3.4602305 0-4.4488678.7446102-.430678 1.6520594-.4575953 2.4170244-.0807521zm-29.3866244-35.752414c1.3711331 0 2.4917971 1.07425 2.5649846 2.4271144l.0038019.1409127v36.9729085c0 1.9323365-2.0443377 3.156153-3.7354208 2.2880324l-.1173792-.0639782c-.7482449-.4323669-1.2260975-1.2084413-1.2797264-2.0629745l-.0050465-.1610797v-36.9729085c0-1.4184135 1.1503729-2.5680271 2.5687864-2.5680271zm48.8016276 15.8128814c0 .8640191-.433839 1.6654848-1.147051 2.1397815l-.136963.085032-35.9599729 20.7613831c-1.7122712.9886373-3.8520407-.247539-3.8520407-2.2248136 0-.8640191.4331657-1.6654849 1.1469315-2.1391485l.1370821-.0849057 35.959214-20.7613831c1.712271-.9886373 3.8528.2467797 3.8528 2.2240543zm-10.27014 13.744491c.3867242.0005813.7733467.0883651 1.1293979.2633513l.1511281.0806187 7.7056 4.4488678c.794251.4586305 1.284014 1.3067932 1.284014 2.2240542 0 1.4878991-1.212088 2.5561467-2.541684 2.57252l-.051859.0001043c-.380704-.0031584-.76984-.0928545-1.141878-.2838338l-.117379-.0639769-7.7056004-4.4488678c-1.7122712-.9886373-1.7122712-3.4602305 0-4.4488678.3813275-.2199827.8049309-.3344504 1.2302548-.3434032zm-.6909013 1.3785667c-.9031409.5214588-.9156845 1.8143-.037652 2.3571738l.03763.0224878 7.6907663 4.440346.088107.0480853.025549.0127103c.887488.4267062 1.935742-.2106494 1.96149-1.2050229l.000484-.037455c0-.4750742-.245903-.9158298-.647352-1.1658499l-.039332-.0235948-7.6900657-4.439817-.107072-.0571947-.0319422-.0150139c-.4013761-.1804335-.8669635-.1581755-1.2506104.063145zm-48.1149727-30.9359391c1.3718671 0 2.491846 1.07425 2.564987 2.4271144l.0037994.1409127v31.0410848c0 1.9772745-2.1405288 3.2126915-3.8528 2.2240542-.7482448-.4323669-1.2254249-1.2084413-1.2789746-2.0629746l-.0050389-.1610796v-31.0410848c0-1.4184135 1.1496135-2.5680271 2.5680271-2.5680271zm-10.2736271 0c1.3711331 0 2.4910875 1.07425 2.5642277 2.4271144l.0037994.1409127v25.109261c0 1.482956-1.2036203 2.548617-2.5281153 2.5716814l-.0530417.000365c-.4248082-.0015518-.8605157-.1107192-1.271643-.3479921-.7475302-.4316523-1.2253408-1.2083573-1.2789672-2.0629672l-.0050464-.1610871v-25.109261c0-1.4021099 1.1240796-2.5415637 2.5199832-2.5675728zm0 1.1946667c-.7455579 0-1.3524879.5936075-1.3735542 1.3335815l-.0005656.0397789-.0001038 25.0907462.0037334.116928.0027028.0335143c.0409243.4247041.2779501.8077675.640818 1.0338034l.0393571.023612c.9058135.52277 2.0340778-.1162673 2.0604998-1.1521786l.0004729-.0371643-.0001493-25.0939708-.002688-.103488-.0019134-.0276168c-.0573479-.6932077-.6297273-1.2370757-1.328901-1.2569812zm69.0466451 2.3539617.025843.1386394c.159096 1.0015819-.285133 1.9969653-1.124102 2.5493001l-.128779.0794728-35.7139529 20.6193898c-1.7122712.987878-3.8520407-.247539-3.8520407-2.2248136 0-.8633044.4331657-1.6654007 1.1469315-2.139141l.1370821-.0849132 35.713193-20.6193898c1.519344-.8768571 3.434623-.0065568 3.795825 1.6814555zm-79.3210316-3.5486284c1.3711331 0 2.4910876 1.07425 2.5642277 2.4271144l.0037995.1409127v19.1774373c0 1.9323365-2.0436125 3.156153-3.7346626 2.2880324l-.1173781-.0639782c-.7482449-.4316522-1.2260975-1.2083572-1.2797264-2.0629671l-.0050465-.1610871v-19.1774373c0-1.3711331 1.07425-2.4910875 2.4271144-2.5642277zm.0104989 1.194816-.099456.0025387-.0276168.0020627c-.6932077.0573479-1.2370757.6297273-1.2569812 1.328901l-.0005646.0397087v19.1595249l.0034346.1143893.0028977.0354452c.0409246.4246799.2779579.807565.6413337 1.03369l.0303073.0181608.0845227.046144.0237941.0118175c.8875037.4267639 1.9349782-.2100112 1.9607065-1.204283l.0004836-.0374514-.0000456-19.1615497-.0028373-.1036374-.0018679-.0280648c-.0573478-.6932077-.6297272-1.2370757-1.328901-1.2569812zm58.889352-1.194816c2.5810847 0 3.5258862 3.3560654 1.4028657 4.7204283l-.1188522.0724124-17.8038237 10.2789424c-.3938224.2273865-.8102594.3370805-1.2180751.3471341l-.0531419.0007785c-1.3448928.0046728-2.5808237-1.0699975-2.5808237-2.5727262 0-.8633045.4331657-1.6654008 1.1469315-2.1391411l.1370821-.0849131 17.8038237-10.2789424c.3697499-.2136493.786523-.3312075 1.212873-.3429902zm0 1.1946667c-.2242514 0-.4441849.0546106-.6415482.1589592l-.0451364.0249612-17.7863474 10.2686662-.1013973.0628694-.0275532.0190286c-.3472168.2475525-.5601625.644022-.5744356 1.0718634l-.0007661.0459548c0 1.045405 1.1176306 1.7032697 2.0276354 1.2083659l.0324096-.0181665 17.7958086-10.2744169.0834773-.0509227.0283869-.0186162c1.0796925-.7352084.5771725-2.4631784-.7496596-2.4980118z" fill="#fff" transform="translate(-22 -19)"/></svg>