<svg height="98" viewBox="0 0 104 98" width="104" xmlns="http://www.w3.org/2000/svg"><path d="m92.9159312 23.0242916c.9083828.6204211 1.7959055 1.269136 2.6612994 1.9448755-.410906 1.7775411-.9229155 3.5243265-1.5051616 5.2305273-.3260663.9572641-.6778959 1.8945601-1.0612138 2.8239118l-.1452315.3481579c-.7418008 1.7926963-1.5732698 3.5299568-2.5025588 5.2256404.5869194.5372383 1.190142 1.0589871 1.8015163 1.5652465.4809478.3913116.9618955.7826232 1.4591466 1.1649672.3423696.2616896.6765876.5144117 1.0271088.7589815.4646445.35055.9374406.6839801 1.42654 1.0108883.4157346.2845161.8396207.5625104 1.2635069.8307219.880379.571478 1.7770613 1.1005639 2.6981985 1.6149756.163033.0978279.331283.1846991.500577.2743877l.127101.06801c1.027108.5535429 2.078672 1.0761069 3.154691 1.5652464 3.04872 1.3769277 6.252321 2.4693393 9.578197 3.2446254l-.178239-.0428927c.327141 1.0793614.61984 2.1736952.876817 3.2817226-3.261885-.6665011-6.420224-1.6237063-9.437154-2.8401812-1.157536-.4720196-2.290616-.9701267-3.415545-1.5163325-1.4020847-.68398-2.7797148-1.433994-4.1247382-2.2329218-.8477724-.5007339-1.6762223-1.025945-2.4853497-1.5721977l-.3025171-.2058244-.1711848-.1141326c-.1874881-.1296219-.3749762-.2600591-.5624643-.3986487-.4960866-.3430964-.9921732-.7035623-1.4728595-1.0711299l-.6629766-.5120516c-.140718-.1090374-.2815379-.2188899-.4245995-.3326149-.7572889-.5951197-1.4990897-1.2228487-2.2245872-1.8750348-1.1982936 1.9239488-2.5025588 3.765559-3.9290988 5.5183089.6765876 1.1747501 1.4102367 2.3234127 2.1846441 3.4329441.2119431.3171255.4401895.6432185.6765876.9538221.1816655.265067.3739781.5224143.5693326.7779742l.4414729.5744965.1059715.1394048c.3179147.4076162.6439809.8152325.9863505 1.2228487.5054028.6024569 1.0271089 1.2138812 1.5659334 1.8016639 3.0642079 3.3669103 6.5775722 6.3343566 10.4414581 8.7963588.912985.5861522 1.834122 1.132358 2.787866 1.6622591 3.282469 1.8130567 6.781914 3.2920969 10.453004 4.3615599l.102228.0294804c-.096315 1.020489-.222374 2.0323206-.377302 3.0346186l-.001828-.0004491c-3.805071-1.0642245-7.443606-2.5381235-10.868993-4.3680879-.921137-.4883243-1.834122-1.0108883-2.730805-1.5562789-3.6437904-2.2182476-7.0185765-4.8587857-10.0428413-7.843352l-.2278174-.2293686c-.9481947-.9670026-2.5602639-2.7387642-2.6578693-2.851395-.5787676-.6603384-1.141232-1.3377966-1.6792414-2.0217766l-.1799733-.2358188c-.0192328-.0253614-.0380835-.0503279-.0564247-.0747848-.5461611-.7002848-1.0678671-1.4185046-1.5814215-2.1440615-.6928909-.9864314-1.3613268-1.9973197-1.9890044-3.0318498-1.5977248 1.7690546-3.3258761 3.439466-5.1518473 4.9810707.4564928 1.5815511.9781988 3.1296776 1.5814215 4.6460101.4483411 1.1331732.9292889 2.2508569 1.4509949 3.3351162.7581042 1.5888882 1.5977249 3.1223405 2.5107105 4.6052485.8233173 1.3541012 1.7036963 2.6576579 2.6492886 3.9220836 1.290889 1.7579007 2.7169574 3.4348356 4.2335393 5.0088246l.2172655.2241529c1.4672983 1.5253 3.0405681 2.9519569 4.6872029 4.2644812.1304265.1141326.2690047.2282651.4075828.3252778.7907108.627729 1.5977249 1.2318163 2.4210422 1.8016639 3.7169954 2.5975545 7.7928404 4.7179113 12.1299784 6.2742623l.084389.0298983c-.456636.9145415-.939653 1.8136092-1.448055 2.696206-3.838014-1.4029284-7.469325-3.2297023-10.8478289-5.4214959 2.0893051 3.7403222 4.6310739 7.1841787 7.5489899 10.2781447l.070155.0739072c-.60498.8179513-1.233578 1.6173752-1.884787 2.3972643-3.5083287-3.6367551-6.5133241-7.7573591-8.9135043-12.2520244-.5135544-.9611591-.9945021-1.9312858-1.4509949-2.9266847-.2119431-.4638673-.4238862-.9367021-.6276776-1.4176893-2.4291939-2.0136243-4.6872029-4.231872-6.7251172-6.6359927.1117456 4.4701916.7940259 8.7996919 1.9779663 12.9196208l.0762513.2626889c.2934596 1.0263778.6276776 2.0380813.9945022 3.0408173 1.8504261 5.118845 4.4915631 9.8643139 7.7685293 14.0864029l-.1105823-.143588c-.7802122.636962-1.5794278 1.251527-2.3966659 1.842714-3.2592671-4.226926-5.9026718-8.9390136-7.8209015-14.0001697-2.4781038 1.5970405-5.1273924 2.9258695-7.9152591 3.9701824 2.265763 5.1928323 5.6503544 9.7897353 9.8487182 13.4780563l.1661067.145176c-.9497073.512911-1.9173388.996889-2.9017135 1.450752-4.2590661-3.921191-7.6863945-8.737646-9.9987981-14.1291299-3.6600941 1.0679546-7.5239796 1.6386174-11.5182916 1.6386174s-7.8581976-.5706628-11.5182916-1.6386174c-2.2810375 5.3183529-5.6469587 10.0771699-9.8257677 13.9689189l-.2036989.18832c-.9859487-.453023-1.9551487-.936239-2.9064158-1.448463 4.2916196-3.717467 7.747501-8.378007 10.0501957-13.6536303-5.1029374-1.900307-9.7330787-4.7772626-13.6540258-8.4058625-2.2096814 4.6759408-5.0720022 8.9980119-8.463399 12.8356888l-.1109937.124873c-.7113453-.71642-1.4017923-1.453618-2.0703502-2.2106025 3.4069156-3.876709 6.2340379-8.2569635 8.3622789-13.0236428.4564928-1.0198558.880379-2.0543859 1.2716585-3.1068511 1.9237911-5.1930311 3.0405681-10.7692215 3.187298-16.5899816-2.4781038-.1948406-4.9072977-.5462058-7.2794299-1.058987-.7047108 2.1057863-1.5418452 4.1615418-2.4974253 6.1435019l-.1518633.3123243c-.5624643 1.1665978-1.165687 2.3152604-1.8178195 3.4321289-2.5107105 4.3460045-5.6001885 8.3161869-9.1624627 11.7972297l.0773508-.07653c-.4607409-.9781147-.8916365-1.9730598-1.2915128-2.983661 3.4852433-3.5717504 6.4560235-7.6532369 8.7851654-12.1171668l.124161-.2395042c.6928908-1.3280138 1.3368717-2.7057567 1.9074877-4.116109.3912796-.9375174.7499525-1.9084593 1.0760188-2.878586-.6032226-.1711988-1.190142-.3423977-1.7852129-.5290859-.3260663-.0986431-.6521326-.2038081-.9700472-.3187559-.6498036-.2089325-1.2936181-.4364322-1.9263103-.6773655l-.3153955-.1215624c-2.7276027-1.0368884-5.3490883-2.2875445-7.8498386-3.7424657l-.2773636-.162498c-.5502369-.31862-1.0948129-.649695-1.633728-.9913378l-.2493515-.1589781c.1509661-1.0972045.3364562-2.1833961.555339-3.2574431 2.8733503 1.9513578 5.9375267 3.6132792 9.185938 4.9539648 1.0108055.4247361 2.046066.8152325 3.0894781 1.17475.8984938.3043535 1.8098692.5887388 2.7284011.8434224l.3447737.094095c.8487913.2353984 1.7038237.4458303 2.5705582.6312957l.37219.0779566c2.0868243.4483779 4.2144068.757351 6.3827476.9375174 1.0026539.0815232 2.0134593.1385895 3.0242648.1548942.4157346.0073371.8314691.0154894 1.2472036.0154894 1.8489876 0 3.6763128-.0931565 5.4751793-.2876256l.3369523-.0376522c1.0678671-.1141325 2.1194308-.2690267 3.162843-.4565302 8.55924-1.5000278 16.3929826-5.1115078 22.9550666-10.2808972.8885307-.7011 1.7526063-1.4266569 2.6003787-2.1929755 1.5569665-1.3940476 3.0324165-2.8932602 4.4100465-4.4748112.7173459-.8152325 1.4183884-1.6712267 2.0868243-2.5443407 1.0859536-1.4139189 2.1059934-2.8987726 3.0487009-4.429707l.187507-.3067939c.546161-.8877882 1.0597154-1.8016638 1.5406632-2.738366.9292889-1.7527499 1.760758-3.579686 2.4699521-5.4539055.3994312-1.0280082.7662558-2.0633535 1.0923221-3.1141882.4972511-1.6149756.9292889-3.2527777 1.2716585-4.9329719zm-17.8046169 33.2057769c-6.5376291 4.9158521-14.2001868 8.3968949-22.5311805 9.9874136-.8844548.1704855-1.7813918.3166286-2.6853501.4384294l-.3878246.0507101c-2.355829.3171254-4.7605678.4809871-7.206065.4809871-.4157345 0-.831469-.0081523-1.2472036-.0163046-.1711848 6.6596344-1.5406632 13.0192632-3.9046438 18.880785 3.806824 3.7174602 8.3880553 6.644145 13.4746894 8.5273321.9455922.3497347 1.8993361.6676754 2.8693833.9375174 3.3177245.9367021 6.8147854 1.4429615 10.4259696 1.4429615 3.6111841 0 7.1082451-.5062594 10.4259695-1.4429615.9700473-.269842 1.9237911-.5877827 2.8693834-.9375174 2.8449283-1.05165 5.5268236-2.4293929 8.0049274-4.0851302-1.6384831-5.1759112-2.5107105-10.6958505-2.5107105-16.4024781 0-.8225696.0163033-1.6541068.0570616-2.4774916-1.4102367-1.981015-2.6981985-4.0598579-3.8312788-6.2210393-.595071-1.1087162-1.1412321-2.2418894-1.6466348-3.390552-.831469-1.87585-1.5569665-3.7908312-2.1764925-5.7726615zm-7.413117 34.3106908c.398616.3081579.4654596.8771902.157327 1.2701322-1.0890615 1.3842649-2.7454782 2.2916186-4.5527006 2.4970572-.2543317.024457-.5086634.0423921-.7621799.0423921-2.0256869 0-3.9608903-.9008319-5.1763024-2.4432518-.3073174-.3929421-.241289-.9611591.1516209-1.269317.3929098-.3146798.9610803-.2421241 1.2757343.150818.9798292 1.2399686 2.6305398 1.8986765 4.3114115 1.711173 1.3238291-.1442961 2.5392412-.8038192 3.325061-1.8073705.3081326-.392942.8763031-.466313 1.2700282-.1516332zm-16.6277504-17.7598403c3.1685492 0 5.7444728 2.5826566 5.7444728 5.7449435 0 .501368-.4051373.9073538-.9072794.9073538s-.9064643-.4059858-.9064643-.9073538c0-2.1652575-1.7656489-3.9310511-3.9307291-3.9310511-2.164265 0-3.9299139 1.7657936-3.9299139 3.9310511 0 .501368-.4051374.9073538-.9072795.9073538s-.9064643-.4059858-.9064643-.9073538c0-3.1622869 2.5759237-5.7449435 5.7436577-5.7449435zm21.235067 0c3.1685492 0 5.7436577 2.5826566 5.7436577 5.7449435 0 .501368-.4051374.9073538-.9064643.9073538-.4889278 0-.8858893-.3848993-.9064434-.8679759l-.000836-.0393779c0-2.1652575-1.7599428-3.9310511-3.929914-3.9310511-2.164265 0-3.9299139 1.7657936-3.9299139 3.9310511 0 .501368-.4051374.9073538-.9072795.9073538-.502142 0-.9072794-.4059858-.9072794-.9073538 0-3.1622869 2.5759237-5.7449435 5.7444728-5.7449435zm15.4670009-52.8469389c.8928904.4679568 1.7703728.9613169 2.6314873 1.4791205-.6712072 1.2481808-1.3965542 2.4573728-2.1685197 3.6424767-.4782305.7536371-.9886652 1.4943916-1.5141284 2.2171103l-.1977196.2701641c-.9129856 1.255458-1.8748812 2.4693392-2.8938383 3.635937-.6684359.7736556-1.3694784 1.5318219-2.0868242 2.2655311-.5298578.5551734-1.0841705 1.1005639-1.6466348 1.630465-.8070141.7663186-1.6384831 1.5008431-2.4862554 2.2182477-.570616.480172-1.1493837.9456697-1.7444547 1.4013847-.9863505.7589815-1.997156 1.4918755-3.0242648 2.1766708-8.6896666 5.8134231-19.1237878 9.2039751-30.3404681 9.2039751-.5787677 0-1.165687-.0154894-1.736303-.0326093-.6032226-.0154894-1.1901419-.1059803-1.7852129-.080708-1.3939334.0489139-4.8176294-.5217489-5.1926057-.5788151-1.0189571-.1630465-2.0297626-.3513652-3.0161131-.5788151-1.1982936-.2616897-2.3802839-.5633257-3.5378192-.8967558-.9781989-.2779943-1.9319428-.5877826-2.877535-.9301803-2.3547657-.8265749-4.6274909-1.8097853-6.8181756-2.9417834l-.23744-.1236894c.4257988-.9155082.8776855-1.8164284 1.3547047-2.7018056 2.1354101 1.1213882 4.3508802 2.0900842 6.6465031 2.89766.9537439.3350605 1.9074878.6448489 2.8856866.9212127.8233174.245385 1.6629381.4654978 2.5107105.6603384 1.0108055.2364174 2.021611.4410407 3.0487198.6114243.2690046.0578815.5380093.0986432.7988624.1312525.4727961.0815232.9455922.1459266 1.4183883.2111452.5282274.0652186 1.0512377.1200022 1.5815519.1685249l.3993008.0352832c1.4999049.1385895 3.0242648.2038082 4.5567764.2038082 11.2417059 0 21.6525101-3.6027334 30.1408955-9.7260856l.2566342-.1863266c1.1086254-.7989278 2.1846441-1.6467696 3.2199046-2.5443406.2037914-.1703836.3994312-.3342454.5869193-.5127813.8795638-.7663186 1.7281513-1.574214 2.5514687-2.4057511.2282464-.2364175.4646445-.480172.7010425-.7165894.7173459-.7589815 1.4102367-1.5326371 2.0786726-2.331565.7581041-.8967558 1.4836016-1.8187837 2.1764925-2.7726058.6032226-.8062649 1.1738386-1.6378021 1.7199997-2.4864591.6743643-1.0368276 1.3083073-2.1012787 1.9079532-3.1927409zm-11.0080723-4.2372221c1.1401317.2934975 2.2649991.6250146 3.3731701.9931191l-.2061555.1911918c-.9330939.8568298-2.8445736 2.5212861-2.8882 2.5583716l-.1150652.0928529c-.4459117.3541755-1.8912064 1.4716612-2.2739991 1.7632386l-.0890395.067042c-.0978199.0733709-.1956398.1467418-.2934597.2119604-8.9994295 6.5055555-20.044925 10.3461159-31.9707995 10.3461159-1.9237911 0-3.8312789-.1067955-5.7143117-.3016361-1.1004737-.1107901-2.2009474-.2605401-3.2895361-.4433071l-.3624063-.062137c-.6777521-.1125021-1.3495152-.2477642-2.0152893-.3919249l-.332388-.0727577c-.9455922-.2038081-1.8748812-.4328884-2.8041701-.6929476-.1684676-.0434791-.3369351-.0905814-.5054027-.139133l-.2527014-.0736427-.1299822-.0407758c.8153178-.8390369 1.6589436-1.6504191 2.5293359-2.4326052 1.9815349.5075338 4.0180809.9032226 6.0946731 1.1771613 1.3613268.1801664 2.7308052.3097884 4.1328902.3839745.880379.0399464 1.760758.0644034 2.6492886.0644034 10.1764473 0 19.6817818-2.9555357 27.6855011-8.0613495l.3252664-.2090481c1.1712482-.7633561 4.2565363-3.0703706 4.7099845-3.4363413.309763-.2527221.6195259-.5127812.9292889-.7744709.309763-.2608744.6032226-.5299011.904834-.7981126z" fill="#fff" transform="translate(-12 -15)"/></svg>