<svg height="96" viewBox="0 0 96 96" width="96" xmlns="http://www.w3.org/2000/svg"><path d="m57.3340904 100.439597c1.0993803.199676 2.208048.351755 3.3201983.451594 1.0940855.097403 2.0191106.572705 2.8214303 1.459326l.0599446.067268.5142824.571167.5015125-.572328c.7984785-.904942 1.7129789-1.398836 2.7995579-1.515099l.081817-.008013c1.1133112-.100999 2.2219789-.253078 3.3213592-.450432.215929-.040632.4179271.066172.5398224.267009.1253782.201998.1346654.457398.013931.657074-.6043869 1.008383-1.2691135 2.004896-1.9887013 2.979495l-.1810367.243187-.494547.645465c-.5182471.662901-.457622 1.633118.2038039 2.184815l.0388259.031359.6663615.511961c1.1028631.825406 2.2614498 1.606697 3.4780819 2.345035.2205726.132344.3204107.355238.2612044.609477-.0615282.237986-.2635263.42141-.5444661.473651-1.4302393.260043-2.867444.456237-4.3174187.585098-1.4272067.128505-2.7073643-.277713-3.7106114-1.143358l-.0623412-.0547-.6071552-.55027-.6234078.549109c-1.0134731.904348-2.3160125 1.330401-3.7752744 1.196897-1.4453311-.128861-2.8860186-.327376-4.3162578-.58742-.2821008-.052241-.4840989-.235664-.5433052-.47365-.0429536-.251918.0545627-.47249.2774571-.604834 1.117687-.682614 2.1888827-1.402817 3.2081086-2.158782l.2537206-.189736.6663614-.510799c.6868198-.535333.770182-1.503143.2742082-2.177595l-.0292565-.03858-.4933861-.645465c-.7847741-1.054105-1.5045374-2.129106-2.156968-3.221521-.1195735-.199676-.1091254-.455076.0011609-.659396.1230563-.201998.3389853-.305319.5409834-.267009zm20.8626866 5.424926c1.0970585.521247 2.232427.999542 3.4049446 1.433722.2228944.081263.3355025.272813.3333153.495707-.0071.207803-.1580181.405157-.3693035.488743-1.1899312.470168-2.397276.893899-3.6185518 1.264229-1.2363675.376135-2.4309424.254239-3.4850473-.348272-1.0819667-.617604-2.1198189-1.271195-3.1158784-1.960775-.1857453-.1277-.2495953-.326215-.2043199-.542144.0452755-.212446.2182508-.356399.4353407-.39587 1.0166076-.178664 2.0275731-.394001 3.0286652-.645164l.3333258-.085047c1.1237594-.29371 2.1894734-.198516 3.2575093.294871zm-25.0500835-.301837c1.1144721.291388 2.2417143.537501 3.3770828.736016.2182508.039471.3738125.179941.417927.394709.06385.218251-.0174136.413284-.2043199.542144-.9948985.687258-2.0339117 1.34085-3.1170393 1.959614-1.0541049.599029-2.2312661.725568-3.4664727.348273-1.2224367-.371491-2.4286206-.792901-3.6185518-1.263069-.2298599-.090551-.3610426-.282101-.3865826-.494547-.0046436-.224055.1277-.40864.330859-.496869 1.1806439-.433019 2.321817-.90783 3.42468-1.427917 1.0517831-.495708 2.1174971-.590903 3.2424175-.298354zm32.8246877-3.187854c1.1771612.298353 2.3833451.547948 3.6162299.751107.2310208.037149.3830998.201998.4214098.42141.0301836.205481-.0742981.427214-.2855835.564202-1.0703576.682614-2.1650943 1.324596-3.2923365 1.922464-1.1353685.604833-2.3299433.718603-3.4804037.329698-1.1829657-.39587-2.3287824-.838176-3.43745-1.323436-.2078026-.088229-.3053189-.271652-.3053189-.491064.0023218-.220572.1451135-.390065.3378243-.465524.9654115-.373 1.919539-.782673 2.8589972-1.224788l.3126048-.148567c1.0459786-.506156 2.1128535-.61412 3.2540266-.335502zm-40.6852169.285954.0847641.040261c1.0390131.49803 2.0966007.961232 3.1704411 1.373355.2066417.082424.3331807.244951.3507252.472489.0021909.219412-.1138999.39587-.3217025.487582-1.0162787.444821-2.0637729.850623-3.1406942 1.219194l-.2944341.099598c-1.1353685.394709-2.3299433.282101-3.4687946-.322733-1.1272421-.600189-2.2277834-1.247976-3.3039455-1.935234-.2089636-.133505-.3029971-.347112-.2855835-.559558.0406318-.220573.2066417-.377295.4376625-.414444 1.2328848-.200837 2.4402296-.452755 3.6162299-.752269 1.0979057-.276735 2.1375642-.180908 3.1553316.291759zm33.1160935-3.5306937c.1404699.1625272.1927108.3645253.1207344.5630407-.3877434 1.066875-.8300495 2.134911-1.331562 3.191337-.4875816 1.029726-1.3211139 1.720467-2.4274597 2.008372-1.0935758.286744-2.1952779.527053-3.3062674.723246-.2182507.034827-.4237316-.055724-.532857-.244952-.1068035-.176458-.1114472-.398191.0116091-.579293.6686833-.967037 1.2828039-1.950326 1.8435227-2.942903.545627-.969359 1.2828039-1.581157 2.2556452-1.8760281.9635541-.291388 1.915499-.6257297 2.8535131-.9937377.1683317-.0696545.368008-.01277.5131216.1509181zm-28.1880192-.1544008c.9380141.368008 1.8887981.7035106 2.8523522.9948986.9472402.2893719 1.6567482.8726069 2.1971096 1.7990009l.0434438.075866c.5607188.993738 1.1748394 1.974706 1.8423617 2.941742.1242173.182263.1369872.407479.0116091.581616-.1091254.189228-.3006753.2821-.5189261.246112-1.115633-.197354-2.2243006-.439984-3.3190374-.726729-1.0840305-.280372-1.9039082-.951424-2.3825824-1.938276l-.0321072-.067773c-.5038343-1.058749-.9507841-2.129107-1.3431712-3.1959815-.0603672-.1938717-.0197354-.4028352.1230564-.5630406.1555617-.1590445.3447898-.2194117.5258915-.1474354zm34.6624058-3.2505438c.1694927.1323436.2600435.3180889.2263772.5293743-.1752972 1.1214376-.406318 2.2533234-.6942233 3.3863701-.2762962 1.1075069-.963554 1.9456829-1.9956017 2.4437119-1.0192776.488743-2.0606126.942658-3.1193611 1.350137-.1880672.073137-.4109616.019735-.5537534-.143953-.1427917-.149757-.1880671-.370329-.0998381-.572328.4309873-.984353.8112493-1.977486 1.149728-2.9695625l.0912832-.2705326c.3494334-1.0564267.951945-1.7994082 1.8504881-2.2765416.8857732-.4713288 1.7518109-.9786458 2.5981132-1.5196292.1625272-.1056427.3738126-.0917118.5467879.0429536zm-41.117057-.0534018c.849785.5433052 1.7204664 1.0517831 2.6120441 1.5265947.8950604.4782943 1.5010547 1.2212757 1.8365572 2.270737.3575598 1.0819664.7685214 2.1662554 1.2386894 3.2424174.0870681.201998.0557236.424893-.0847463.575811-.1590445.159044-.3656862.219411-.571167.138148-1.0564267-.406318-2.0954398-.860233-3.1170393-1.352459-1.0091133-.485827-1.6874806-1.299071-1.962392-2.3615946l-.0181179-.0728301c-.2879053-1.1330467-.5166043-2.2660934-.6942233-3.3886919-.0359882-.2089636.0429536-.4028353.215929-.5375007.1834235-.1253781.3819389-.1474354.5444661-.0406318zm49.1679575 1.7843164c1.2131493.0708154 2.4448732.0859072 3.6963326.049919.2310208-.0069654.4121225.1253782.4910643.3331808.0708154.1973544.0069654.4341798-.1718145.6071551-.9206004.8741641-1.8725454 1.7135008-2.8593176 2.5145278-1.001864.811475-2.1488416 1.149299-3.3538646.989094-1.2328848-.162527-2.4460342-.374973-3.6255173-.636178-.2217335-.049919-.355238-.208963-.3935479-.427214-.0394709-.21709.062689-.407479.240308-.521248.876602-.5506189 1.7343973-1.1369706 2.5700007-1.7497457l.2777079-.2052242c.9298877-.6965451 1.9561308-1.0088295 3.1286484-.9542668zm-54.7126032.8847011.0756057.0556348c.9240832.6872578 1.8713845 1.344332 2.8477086 1.9572918.1880672.120734.2809398.304158.253078.530535-.0383099.215929-.1857453.365686-.4063179.415605-1.0843853.240502-2.1921822.440033-3.3189199.595911l-.3077583.041428c-1.1887703.168332-2.3392306-.170653-3.3387728-.980968-.9937377-.804509-1.9480045-1.6496506-2.8744094-2.5272974-.1764581-.1729754-.228699-.3970307-.1718145-.6071551.0801027-.2078027.2739744-.3285371.507317-.3227326 1.2502985.03831 2.4820224.0232182 3.6940108-.0475973 1.1295326-.0621242 2.1304817.231829 3.0402727.8893448zm52.3698898-7.2012042c.1927108.0963554.3180889.2623653.3250544.4748115.0394709 1.1353685.0290227 2.2916334-.0359882 3.4595074-.0615281 1.1388512-.5769715 2.0919571-1.4906065 2.7792149-.9113132.6756487-1.8435227 1.3211139-2.8047549 1.9236254-.1694926.1091254-.4005134.0986772-.5734888-.0348273-.1625272-.1207345-.254239-.3250544-.2043199-.5398224.2330524-1.0524603.416355-2.0990677.5570614-3.1380338l.0373238-.2831636c.1367733-1.0738403.5685107-1.9044454 1.3220033-2.5389678l.0617996-.051019c.7789696-.6326952 1.534721-1.2967348 2.2626106-1.9886363.14047-.1358263.3471117-.1625272.5433052-.062689zm-52.5322703.0487581c.7313724.6942233 1.4882847 1.3640675 2.2718979 1.9979235.769774.6250882 1.2181693 1.443884 1.3612606 2.4971102l.0109333.0859112c.1427917 1.1318858.3389853 2.2742198.5920633 3.4188756.0487582.2159289-.0267009.4295361-.1938717.5514315-.1857454.1253781-.4016744.1451136-.5850979.02554-.9612322-.6036724-1.8934418-1.2502985-2.8024331-1.9259472-.8944671-.6708503-1.4049137-1.5991942-1.473823-2.6938729l-.0040135-.0748939c-.0650109-1.1690348-.0754591-2.3252997-.0371491-3.4595073.0069655-.2136072.1207345-.3877434.3157671-.4875816.2043199-.088229.4016744-.0708154.5444661.0650109zm25.9823479-63.6683173c9.9739 0 19.0086255 4.0431129 25.5468787 10.5813661 6.536921 6.5382531 10.5840302 15.5729786 10.5840302 25.549543 0 9.9765643-4.0471092 19.0099577-10.5840302 25.549543-6.2997961 6.2971317-14.9095618 10.2789652-24.4518412 10.564048v-4.404129c0-4.0084767 1.9862542-7.4521165 5.4565373-9.4543567l10.1004554-5.8295427v4.4054611c0 4.0071446-1.9902506 7.4507844-5.4618659 9.4516924l-2.7429224 1.5879376c5.7069838-1.5066757 10.8091658-4.5120341 14.8602717-8.5631401 5.9680877-5.9640911 9.6541811-14.2048478 9.6541811-23.3075136s-3.6860934-17.3447547-9.6541811-23.3088458c-5.9654233-5.9640912-14.20618-9.6568454-23.3075136-9.6568454s-17.3447547 3.6927542-23.3088458 9.6568454c-5.9654233 5.9640911-9.6555132 14.20618-9.6555132 23.3088458s3.6900899 17.3434225 9.6555132 23.3075136c4.0511059 4.051106 9.1546201 7.0551322 14.8616039 8.5618079l-2.7442546-1.5866054c-3.4716152-2.000908-5.4578694-5.44588-5.4578694-9.4516924v-4.4054611l10.0951268 5.8295427c3.4729474 2.0022402 5.4592016 5.44588 5.4592016 9.4543567v4.404129c-9.5422794-.2850828-18.1560416-4.2669163-24.4531734-10.564048-6.5382531-6.5395853-10.5826982-15.5729787-10.5826982-25.549543 0-9.9765644 4.0431129-19.0112899 10.5826982-25.549543 6.536921-6.536921 15.5716465-10.5813661 25.5482109-10.5813661zm38.9716429 63.3629984c.104482.1787799.087069.4260534-.056884.6268906-.739499 1.0355303-1.510342 2.042038-2.328783 3.0148793-.8254055.9856113-1.8911195 1.5393647-3.1042689 1.6101801-1.2398502.0754591-2.4692523.0975163-3.6777581.06385-.2263771-.0058046-.3877434-.1369872-.469007-.3413071-.0812636-.2054808-.0139309-.4167662.1358263-.5595579.8393368-.7847742 1.6461682-1.6101801 2.4216551-2.4622869.7824523-.8590723 1.7320755-1.3605848 2.892984-1.5312383 1.2015406-.1613663 2.4146896-.3830998 3.6324826-.6570742.222894-.0359882.433019.0475972.553753.2356644zm-77.3582981-.2403081c1.2212758.2739744 2.4321033.494547 3.6359654.6570742 1.1516213.1578836 2.0966008.6582352 2.8778922 1.5184683.774326.8532678 1.5834792 1.6775128 2.4216551 2.4646088.1625272.1532399.2170899.3529162.1485963.5700061-.0789418.2043198-.254239.3250543-.4806161.3320198-1.099697.028495-2.2147448.0118969-3.3407824-.0480499l-.3381366-.0192828c-1.1980576-.0603673-2.2626107-.6106379-3.0914994-1.5974101-.8207623-.977485-1.5985709-1.9886363-2.3403915-3.0288103-.1427917-.201998-.1485963-.4330188-.0534018-.6280515.1195736-.190389.3320199-.2704916.5607188-.2205726zm69.6672797-5.0940665c.2101245.0568846.355238.2101245.4121225.406318.254239 1.1051849.4632025 2.2428752.6234079 3.4026228.1567227 1.1284031-.1671708 2.1627725-.9356922 3.0102357-.7650387.8393369-1.5579392 1.6508119-2.3845061 2.4228161-.1485963.1416308-.3726516.1752972-.5700061.0766199-.1857453-.0859072-.3134453-.2704916-.3064798-.4922252.0287325-1.0769361.0106417-2.1402154-.0489073-3.1862611l-.0172645-.2848553c-.0719763-1.1098285.2112854-2.0246244.8648768-2.8059158.6454652-.7685214 1.2584248-1.5672265 1.8423618-2.384506.1114472-.1613663.3134453-.2240554.520087-.1648491zm-62.0157318.1485963c.5850979.8207623 1.2015403 1.6229501 1.8504882 2.3949543.6359268.7601754.9201722 1.6478354.8623597 2.7089599l-.0056093.0888295c-.0766199 1.1376904-.0998381 2.296277-.0719763 3.4711164.0058046.2194117-.1068036.4156053-.2937098.5015125-.2054808.0882291-.419088.0661718-.5804543-.0859072-.8277277-.7754869-1.6194673-1.5881228-2.3833451-2.423977-.7499205-.8293372-1.0751938-1.8371814-.9346452-2.9249305l.010562-.0760179c.1578836-1.1585867.368008-2.296277.6234079-3.4014619.0464363-.2078026.1950326-.3587207.4028352-.4179271.2170899-.0475972.406318.0046437.520087.164849zm74.1576742-2.7734104c.14047.1567227.169492.4005135.069654.6268906-.530535 1.1632303-1.101702 2.3055643-1.720466 3.4223583-.616443 1.1121503-1.555618 1.8562927-2.735101 2.1592898-1.20154.3122844-2.40308.5665233-3.5976551.7650387-.2111632.0362936-.3973202-.0399404-.5081296-.2158701l-.017762-.0302425c-.1184127-.1880672-.0917118-.4051571.0290227-.5746497.6080839-.8389886 1.183256-1.7033662 1.728902-2.5855162l.180792-.2946978c.583969-.9657504 1.392134-1.6303735 2.448021-2.0088395l.088565-.0308767c1.153943-.3947089 2.30092-.8474632 3.451381-1.3571021.20548-.0789417.433018-.0383099.582776.1242172zm-86.2276398-.1288608c1.1434949.5038343 2.2916334.9507841 3.4409328 1.3408493 1.0719264.3659686 1.8910818 1.0132823 2.4874065 1.9633273l.0491785.0798717c.6001897.9809676 1.2352067 1.9456826 1.9085336 2.879053.1311827.1811018.1462745.3877435.03831.5885806-.1172518.1857454-.3111235.2693308-.5270525.2461126-1.0870325-.1857453-2.1798215-.4185027-3.2783672-.6956554l-.3297364-.0844751c-1.1678739-.2879053-2.1070489-1.0308867-2.7304567-2.1592898-.6187643-1.1167939-1.1899313-2.2614497-1.7169837-3.42468-.1033209-.2252163-.0650109-.4539153.0661718-.6245688.152079-.164849.3772952-.203159.5920633-.1091254zm77.6252549-3.6342955.0360407.0018128c.2124462.0185746.3854216.139309.4794552.3215717.4203456.954557.812402 1.939354 1.162757 2.9526028l.094507.2770446c.376134 1.065714.256561 2.1430371-.335503 3.120522-.5897412.9693586-1.213149 1.9178209-1.8795105 2.8349386-.1160909.1660099-.3331807.2426299-.5433052.1822626-.2078026-.0371491-.3598816-.2078026-.393548-.4225707-.1973544-1.1597476-.4399843-2.2939552-.7302114-3.3968182-.2744764-1.0470767-.1840833-1.9754609.2701101-2.8343405l.0386916-.0714135c.4875815-.8822904.938014-1.7843164 1.3559411-2.7014341.0745561-.1688477.2423074-.2683167.4445754-.2641781zm-69.6486526-.0156008c.2240553-.0046436.4005134.0824245.4794552.2600435.4167661.9182786.8683595 1.8214654 1.357102 2.7037559.4922252.8904168.596707 1.8423618.3064799 2.9069149-.2879054 1.1063457-.5305352 2.2440361-.7209242 3.4061055-.0452755.2054808-.1961936.3749734-.3923871.4248925-.2217335.0475972-.4260534-.0174136-.5549143-.1950326-.6652005-.9182787-1.2909302-1.86558-1.877189-2.8337777-.5786073-.9575384-.7059577-2.0093197-.3592967-3.0502404l.0249551-.0726034c.3772952-1.1063458.8010268-2.1813471 1.2619075-3.2168775.0870681-.1950326.2588826-.3157671.4748116-.3331807zm57.2913247-37.9569975c12.4058917 12.4058917 12.4058917 32.5198163 0 44.925708-.1363285.1363284-.3573606.1363284-.4936891 0-.1363285-.1363285-.1363285-.3573607 0-.4936891 12.1332347-12.1332348 12.1332347-31.8050951 0-43.9383298s-31.805095-12.1332347-43.9383297 0c-12.1237097 12.1237096-12.1342344 31.7764753-.0255373 43.9127634.1361732.1364835.1359217.3575155-.0005618.4936888-.1364836.1361732-.3575156.1359217-.4936888-.0005619-12.3808171-12.4090281-12.3700558-32.5034248.0260988-44.8995794 12.4058916-12.4058917 32.5198162-12.4058917 44.9257079 0zm-39.11222 24.9766445 10.0951268 5.8308749c3.4382179 1.9808988 5.4193278 5.3758193 5.4586062 9.3329405l.0005954.120084v4.4041289l-10.096459-5.8255462c-3.4368991-1.9848554-5.4179958-5.3785097-5.457274-9.3368979l-.0005954-.1201231zm33.3013961 0v4.4054611c0 3.9697108-1.9506447 7.3832136-5.3581624 9.3964435l-.1037035.0605775-10.0951268 5.8255462v-4.4041289c0-3.968392 1.9467277-7.3831873 5.3528745-9.3925653l.1036628-.0604592zm29.6124407 8.0871237c.164849.1276999.244951.3622034.184584.6025115-.290227 1.2444939-.637339 2.4750569-1.025082 3.691689-.397031 1.2270803-1.170196 2.1221407-2.269576 2.6457105-1.122599.5363397-2.251002 1.0169558-3.385209 1.4430092-.201265.074787-.395237.0380881-.538483-.1160191l-.023397-.0267726c-.150918-.1602054-.170654-.3796171-.083586-.5676843.48526-1.0448176.921762-2.1128534 1.321114-3.1924983.390819-1.0617607 1.05419-1.8685522 2.016847-2.4438993l.080915-.0474104c1.051783-.6094769 2.098922-1.2758384 3.126327-1.9979235.188067-.1149299.415605-.1195736.595546.0092873zm-91.8986778-.0139309c1.0250822.7151196 2.067578 1.3768375 3.1216829 1.979349.9822814.5810041 1.6585926 1.3590178 2.0632264 2.4090565l.0322135.0857358c.3993525 1.078484.8358541 2.1465198 1.3199529 3.1924984.0917118.2008372.0673327.4074789-.075459.583937-.152079.1578835-.3575598.2054808-.5642015.1416308-1.0396903-.3948056-2.0774297-.8354591-3.1105354-1.324643l-.2816393-.134619c-1.090093-.507317-1.8690626-1.4186302-2.2672543-2.6468714-.3912261-1.217793-.7336941-2.4471951-1.0250822-3.691689-.0549904-.2276602.0171339-.435524.1650444-.5633789l.0253446-.020558c.1764581-.1509181.4051571-.1451136.596707-.0104482zm83.2998278-1.8028909c.593119.8485186 1.158414 1.732536 1.694142 2.6520523l.159829.2769198c.575811.9716804.665201 2.0524862.272814 3.1263266-.392387 1.0622313-.823084 2.1128535-1.301379 3.1414184-.082424.1857453-.279779.3018362-.498029.2844226-.210125.0023218-.391227-.1358263-.467847-.342468-.410961-1.0993804-.868359-2.1639335-1.365228-3.1890157-.4721446-.9759161-.5684296-1.891387-.2835085-2.8298182l.0246259-.0782576c.3064796-.9612322.5781326-1.9329126.8114746-2.9138803.042954-.1880672.199677-.3250544.417928-.3494334.214768-.0220573.407478.0615281.535178.2217335zm-74.799961-.2316283.0362934.0052511c.2159289.0243791.3703298.1462745.4167661.3355026.2298599.9821286.5015125 1.9514872.8103141 2.9115585.3111235.9670368.228699 1.9213036-.2612044 2.9092367-.4933861 1.0308867-.9496231 2.1000835-1.3605847 3.2052683-.0835854.1915499-.2623653.3273762-.4666852.3401462-.2263772.0046437-.4144444-.0986772-.5049952-.2971925-.4771334-1.028565-.9078305-2.0791872-1.3002175-3.1414184-.3923871-1.0750013-.2960317-2.1395544.2728134-3.1274875.583937-1.0134731 1.206184-1.9863145 1.8609364-2.9138803.1162198-.1655585.2924987-.2503478.4965636-.2269847zm84.520248-6.9985098c.185746.0928727.305319.3088016.297193.5560752-.049919 1.2723557-.147436 2.5458723-.301836 3.8135844-.148597 1.2793211-.739499 2.3055642-1.710019 3.0299711-1.001864.7453033-2.017659 1.433722-3.049706 2.0664172-.180369.11438-.37845.1162323-.547851-.0072752l-.02796-.0217476c-.179941-.1276999-.240308-.3413071-.192711-.5421442.243443-1.0072042.454914-2.0238118.626797-3.0464375l.055817-.3410935c.176336-1.116794.67185-2.0365784 1.509045-2.7850729l.06863-.0603138c.918279-.8021878 1.8145-1.6542946 2.684021-2.5574815.162527-.1497571.386582-.1961935.58858-.1044817zm-94.1496788.0998381c.8706814.8962214 1.7669028 1.7425237 2.6828596 2.537746.8579419.75734 1.369191 1.6533572 1.5626819 2.7587802l.0149927.0900892c.1811017 1.1376904.4086398 2.270737.6779706 3.3886919.0545627.2147681-.0058046.4283753-.1845845.5572361-.1799408.1288608-.3900652.1335045-.5792933.0290227-.9449795-.5863555-1.8811797-1.2185589-2.7987643-1.8983984l-.2497814-.1865932c-.9705195-.7069933-1.5614219-1.7494891-1.713501-3.0311321-.1509181-1.2677121-.2495953-2.5400678-.2995144-3.8124235-.0058045-.2298599.1126082-.4457889.2995144-.5375007.2008372-.1114472.4248925-.0650108.5874197.1044818zm85.3604408-.240308c.745092.7208186 1.470036 1.4819332 2.173088 2.2807272l.210257.240766c.751108.8428196 1.0483 1.8864763.866038 3.0172012-.175297 1.1179549-.400514 2.2312661-.668683 3.3329683-.047598.1973544-.219412.3494334-.433019.3738125-.208964.0441145-.409801-.0580454-.525892-.2437908-.618764-1.001864-1.272356-1.9561308-1.957292-2.8686049-.668683-.8904168-.93337-1.7959254-.816118-2.8047549.123056-1.0030249.199676-2.0106935.240308-3.0206839.006965-.1961935.138148-.3587207.347111-.4248925.205481-.0626891.410962-.0174136.564202.1172518zm-76.6310343-.1352933.0366136.012237c.2089635.0661717.3401462.2298598.3447898.4121225.0417927 1.0111513.1172518 2.016498.2391472 3.019523.1160908 1.0111513-.1451136 1.9294299-.8149578 2.8047549-.6860969.9182786-1.3385275 1.877189-1.9549699 2.8825358-.1195736.1706535-.3227326.2728135-.5247307.2449517-.2194117-.0243791-.3865825-.1764581-.4388234-.3900653-.2646871-1.1005412-.4910643-2.2138525-.6686833-3.3341292-.1799408-1.128403.1207345-2.156968.8695205-3.0160402.7673605-.8834514 1.5637437-1.7181446 2.3845061-2.5064015.1442258-.1376701.3326705-.1879306.5275879-.1294887zm54.6856235-19.0863183.0007711.0437414v11.0436264c0 3.9657543-1.9506447 7.3805232-5.3581624 9.3924862l-.1037035.0605383-10.0951268 5.8282106v-4.4067933c0-3.9670731 1.9467277-7.3792439 5.3528745-9.3924474l.1036628-.0605771 5.3552929-3.0906168c1.5993013-.9236326 2.5254187-2.4971914 2.5531158-4.3338295l.0006395-.0849533v-4.9556441c0-1.3414007 2.1440268-1.3559812 2.1906361-.0437414zm-31.11055.0437414v4.9556441c0 1.8730204.9298494 3.4809404 2.5524232 4.4187828l5.3526286 3.0906168c3.4729474 2.0049044 5.4592016 5.44588 5.4592016 9.4530245v4.4067933l-10.096459-5.8282106c-3.4716152-2.0035723-5.4578694-5.4472121-5.4578694-9.4530245v-11.0436264c0-1.3561414 2.190075-1.3561414 2.190075 0zm61.2299178 10.2284266c.201998.0568845.35872.2461126.39703.4899034.192711 1.2619075.335503 2.5296196.428376 3.8019753.091711 1.2862866-.292549 2.4030806-1.108668 3.2969801-.840498.9194395-1.706535 1.7877991-2.595791 2.6074005-.159473.1462744-.35437.1852308-.542248.0971273l-.031241-.0158637c-.201998-.0917118-.299515-.2879053-.290227-.494547.047016-1.0354143.05736-2.0727093.031877-3.109346l-.00982-.3455177c-.039534-1.1295326.274812-2.1249866.953731-3.0195104l.05742-.0743108c.75343-.9600713 1.467389-1.966579 2.154646-3.019523.128861-.1787799.337825-.2670089.554915-.214768zm-92.9492999.2112853c.6872578 1.0448177 1.4035384 2.0466817 2.1546462 3.0009485.7162805.9298877 1.0494613 1.9340735 1.0111513 3.0938211-.0394709 1.1527821-.0325055 2.3044034.0197354 3.4548637.0092873.2228944-.088229.419088-.2890662.5131215-.2008372.0917118-.4086398.0557237-.5746497-.0835854-.8172796-.7555579-1.612123-1.5540372-2.3854244-2.3945437l-.210367-.2302704c-.8172796-.8764859-1.1992185-2.0118544-1.1063458-3.2958192.0905509-1.2723557.2368254-2.5412287.4283753-3.8031362.0359881-.2275381.1927108-.4167662.3947088-.4724898.2217336-.0696545.4295362.0197355.5572361.2170899zm84.2924049 1.3164702c.875809.5693289 1.740887 1.1845056 2.588082 1.8437418l.230604.1808827c.896221.6872578 1.383803 1.6531337 1.422113 2.7989503.035988 1.1318858.029022 2.2672543-.023218 3.3991401-.008799.1935662-.133251.366294-.323015.4411906l-.032223.0115637c-.195033.0789418-.413284.0220573-.563041-.1416308-.795222-.862555-1.618306-1.6763519-2.466931-2.4448733-.825406-.748786-1.258424-1.5881228-1.330401-2.6062396-.073137-1.0065076-.183423-2.0095326-.337824-3.0079139-.030184-.1927108.067333-.3784561.260043-.4806161.190389-.1021599.401675-.0951945.575811.0058045zm-75.6491812-.0286926.0334064.0194054c.1892281.100999.2890662.2890662.2623653.4666852-.1532399.9960595-.2681698 2.0002453-.3389853 3.0079139-.0742981 1.014634-.5084779 1.8725454-1.3338838 2.6050787-.8463023.7708432-1.6705473 1.5916055-2.4669306 2.4588042-.1485963.1462744-.3691689.2066417-.5618797.139309-.2101244-.0673327-.3482725-.2472735-.3563989-.4666852-.0522409-1.1330467-.0580454-2.2672543-.0197354-3.4014619.0359881-1.142334.5235697-2.094279 1.4232738-2.7966286.9206004-.7220851 1.8620972-1.3907684 2.8152031-2.0083717.1682634-.1081693.3642923-.1207023.5435651-.024049zm38.6297162-21.5251952.0007706.0436124v22.0352986l-1.0950375.6287806-1.0950375-.6301128v-22.0339664c0-1.3374476 2.1427234-1.3519851 2.1893044-.0436124zm35.129506 14.3759906c.960388.3862659 1.917898.8195439 2.868168 1.2980894l.284859.1449199c1.013474.5015125 1.678674 1.357102 1.931752 2.4750569.254239 1.1028631.460881 2.2173352.623408 3.3399337.032994.2056641-.058.3842382-.231526.4932777l-.029678.0175221c-.177619.1160908-.402836.0975163-.579294-.0313446-.94614-.6965451-1.909694-1.3396884-2.884857-1.928269-.926894-.5629184-1.508196-1.2799225-1.782484-2.2217411l-.021568-.0768577c-.265848-.9740022-.5665234-1.9352344-.9066696-2.8825358-.0673327-.1834235 0-.3726516.1625272-.5235697.1660099-.1381481.3714904-.1706536.5653624-.1044818zm-71.8731117.0765621.0291286.0255979c.1671708.1381481.2298599.3378243.1671708.5084779-.304416.8430775-.5767279 1.6953277-.8210123 2.5583811l-.0903009.3241547c-.2623653.9798068-.8509459 1.7343973-1.8040518 2.2951161-.9751631.5943851-1.941039 1.2410112-2.8883403 1.9433608-.1741363.1149299-.3993525.1335045-.5781324.0313445-.1927108-.1056426-.292549-.3099625-.2612044-.5258915.1636881-1.1214376.3726516-2.2382316.6268905-3.3422556.2553999-1.115633.9182787-1.953809 1.9340736-2.4715742 1.040174-.5305351 2.093118-1.0065076 3.1472229-1.4267565.186838-.0742981.3808744-.0498749.5385557.0800448zm80.0749307-3.2423595c.214768.0325054.400513.1718144.484098.4039961.430697 1.2027012.816119 2.4193333 1.1493 3.6522181.337824 1.2468158.177619 2.4181724-.455076 3.4560246-.653592 1.0622313-1.333884 2.081509-2.054808 3.0543503-.126478.1737697-.310262.2475147-.514829.197545l-.034281-.0094778c-.212446-.0522409-.343629-.2101245-.376134-.4306971-.150454-1.0270557-.338521-2.0465888-.55997-3.0594455l-.075047-.3373728c-.257722-1.1318857-.131183-2.1975997.39703-3.2319692.553754-1.0866104 1.063392-2.2138525 1.5324-3.3782437.095194-.1996763.284422-.3285371.507317-.316928zm-88.306827.3122843c.470168 1.1597476.9809677 2.2823461 1.535882 3.361991.5235697 1.0506222.6559133 2.0989226.3981916 3.2308084-.2577217 1.1225985-.470168 2.257967-.6373388 3.3979792-.0325054.2205726-.1671708.3935479-.3819389.4469497-.2136071.05108-.4121225-.0220572-.5479488-.190389-.6576546-.8960278-1.2860447-1.8320506-1.8869587-2.8062799l-.1632057-.2666449c-.6350169-1.0181167-.7905787-2.206887-.4550761-3.4525418.3366634-1.2340458.7220851-2.4529997 1.1551039-3.65454.0777809-.2159289.2681699-.3703298.4771334-.3865825.2298599-.0267009.4179271.100999.5061561.3192498zm52.7553305-6.4683392.0007706.0436983v12.4890227l-2.190075 1.2655543v-13.754577c0-1.3400829 2.1427234-1.3546491 2.1893044-.0436983zm-16.7325215-.9674129c.6164147 0 1.1525125.2944954 1.1755298.9657986l.0007696.0453126v13.7532448l-2.190075-1.2642221v-12.4890227c0-.558176.4555995-1.0111112 1.0137756-1.0111112zm40.8455861 3.6070759c1.0163226.1962991 2.0384018.4367319 3.0627489.723915l.307368.0875601c1.087772.2971925 1.908534 1.0088294 2.374058 2.054808.462042 1.0343695.878808 2.0884744 1.253782 3.1576711.076619.2066417.009287.4121225-.15324.5676843-.155562.1335044-.379617.1590444-.576972.0650108-.96672-.4559204-1.941116-.8648288-2.914465-1.2293419l-.291964-.1080246c-1.0448178-.380778-1.7610984-.9960595-2.2126918-1.9073727-.4446279-.9043477-.9275659-1.7901209-1.4441701-2.6573196-.0998382-.1660099-.0731373-.3610425.0568845-.5409833.1404699-.1683317.3355025-.2403081.5386615-.2136072zm-65.4212723.1806296.0238141.0306558c.1381481.1660099.1578835.3738125.0650108.5316961-.5166042.8648768-1.001864 1.7494891-1.4464919 2.6538368-.4515934.9124741-1.1748394 1.5370428-2.2150134 1.9062117-1.0715186.3947089-2.1453589.8428196-3.2087511 1.3489757-.1938717.0801027-.419088.0534018-.5734888-.0789418-.1706536-.1416308-.228699-.3610425-.1567227-.5676842.3772953-1.0691968.7987051-2.1209798 1.2584248-3.1576711.4608807-1.0320477 1.2793212-1.7425237 2.3740579-2.0548081 1.1260812-.3192498 2.2498407-.5839369 3.3666346-.7952223.1966716-.0382417.3820313.0253231.5125257.1829514zm73.4094832-4.5618982c.655914 1.0982194 1.267713 2.219657 1.831914 3.3654737.572328 1.1562649.639661 2.3357479.220573 3.47576-.435341 1.1690349-.908992 2.2985988-1.426757 3.3944965-.099838.2054808-.278618.3146062-.495708.304158-.22986-.0232182-.387743-.1555617-.463202-.3656862-.380778-1.0854494-.806832-2.156968-1.275839-3.209912-.459719-1.0335223-.544679-2.0736386-.254877-3.1567053l.025017-.0903557c.328538-1.1725176.617604-2.3763797.850946-3.6092645.054563-.215929.214768-.3749735.437663-.4086398.214768-.0092873.426053.0893899.55027.3006753zm-81.3916795-.3081837.0328908.0028647c.228699.0174137.3900653.1799408.4330189.4086398.2391471 1.2270803.5258915 2.4274597.8602332 3.5941727.3122844 1.1318858.2356644 2.2010825-.2321817 3.248222-.469007 1.0494613-.8950605 2.1221407-1.2781603 3.2087511-.075459.2101244-.240308.355238-.4608806.3656861-.2194117.0104482-.3993526-.0998381-.5015125-.2902271-.4735539-1.0077653-.9090639-2.0457707-1.3101067-3.1184871l-.1085235-.2934229c-.4272143-1.1202767-.3540771-2.3194952.2194117-3.4757601.5653625-1.1458167 1.179483-2.2660934 1.8342354-3.361991.1110807-.1847677.3138505-.2986847.5115753-.2884482zm72.4039264-1.1011592c1.129564.0847463 2.0652562.6268905 2.7258131 1.5637437.647787.9275659 1.263068 1.8818327 1.838879 2.8593176.110286.1880672.088229.4016744-.045275.5850979-.1277.1613663-.342468.2298599-.5537537.1752972-1.0384854-.2606767-2.068336-.4753009-3.0939127-.6464891l-.3075492-.050056c-1.0924149-.1625272-1.9201426-.6408215-2.536585-1.4488138-.6117988-.8033487-1.256103-1.5834792-1.92943-2.3334261-.1335044-.1462745-.1427917-.3436289-.0475972-.5467879.1044818-.1892281.2832617-.2995144.4957079-.2995144 1.1365294-.0058045 2.2904725.0417927 3.4537028.1416309zm-60.4728844-.1520791c.2136072 0 .3842607.1184127.4887425.3088017.1044817.1915499.0835854.4005134-.0371491.5340179-.6756487.7534296-1.3211139 1.5312383-1.9317517 2.3334261-.6176034.8079923-1.4476529 1.2851257-2.5470333 1.4604229-1.128403.1764581-2.2626106.4086398-3.4014619.6953842-.2066417.0417927-.4190879-.0278618-.5467879-.190389-.1404699-.1683318-.1567226-.393548-.0441145-.583937.5723279-.9705195 1.1852876-1.9213036 1.8307527-2.8453867.6605569-.9368532 1.5962492-1.4801584 2.7351004-1.5718701 1.1655521-.10216 2.3171734-.1462745 3.4537028-.14047zm64.017138-5.8242779c.8521065.9484623 1.6659035 1.9340736 2.4390685 2.9475467.765065 1.0023026 1.071746 2.1333519.890744 3.2911372l-.013097.0789802c-.197354 1.2270802-.448111 2.4309423-.745303 3.6034599-.054563.2194117-.211285.3633644-.428375.3970307-.227538.0150918-.413284-.0801027-.522409-.2716526-.528678-.8922742-1.086506-1.7685628-1.6734846-2.6220952l-.1967392-.2836587c-.6663615-.9496232-.9449795-1.9863145-.8463023-3.1425793.10216-1.2108276.1590445-2.4413906.1590445-3.691689 0-.2345036.1253781-.4225707.3378244-.4980298.2112853-.049919.4353406.0081264.5990287.1915499zm-70.4230311-.1938717c.2101245.0731372.3482726.2484344.3482726.4829379 0 1.2502985.0545627 2.4820224.1602053 3.6916891.08939 1.1701957-.1915499 2.2057261-.8579113 3.1565101-.5934565.8431679-1.1568221 1.7098441-1.6884045 2.5949509l-.1760146.2957113c-.1102863.1938717-.3029971.304158-.5212479.2704917-.2194117-.0336664-.3726516-.1752972-.4376625-.3819389-.2971926-1.1725176-.5467879-2.3752188-.7453033-3.60346-.1961935-1.1992185.1068036-2.3578051.888095-3.3817264.7754869-1.015795 1.5881229-1.9979235 2.4413906-2.9487076.1555617-.1706536.3912262-.241469.5885806-.1764581zm64.3027216 1.5382038c.8161186.7882568 1.6008928 1.6066973 2.3520006 2.4564823.1451144.164849.1602053.380778.0673327.5827761-.0928727.1834235-.292549.291388-.5096389.2797789-1.1725176-.0661717-2.333426-.075459-3.4734382-.037149-1.1028631.0487581-2.0095326-.2623653-2.7664449-.939175-.7557515-.6733269-1.5347211-1.3141484-2.3403916-1.9224645-.1567226-.1195735-.201998-.3111234-.1497572-.5258915.0673327-.2078026.2228945-.3471117.4306971-.3889044 1.1156331-.2228944 2.2568061-.3947088 3.4200364-.5212479 1.1225985-.1300217 2.1465198.2217335 2.969604 1.015795zm-55.8002278-1.0262432c1.1632303.1242173 2.3055643.2983535 3.4188755.521248.2089636.0417927.3540771.1915499.4179271.3993525.0650109.2043199.0069655.406318-.1369872.5177652-.7171835.5407254-1.4132699 1.1062168-2.0874441 1.6956589l-.2517865.2221619c-.7603951.6791315-1.6682255.990255-2.7826977.9507841-1.1376903-.0406318-2.296277-.0301837-3.4711164.0359881-.2170899.01277-.4063179-.1091254-.5003515-.2902271-.1033209-.1927108-.0754591-.4202489.0696545-.583937.748786-.8474632 1.5277556-1.6600991 2.3415524-2.4437124.824245-.7952223 1.8481663-1.1469775 2.9823739-1.0250822zm55.1698544-6.5312711c1.015795.7720041 2.0060499 1.5799964 2.956834 2.4297814.9398715.8411169 1.4557666 1.8908924 1.4988504 3.0603382l.0022043.0799193c.0383099 1.243333.0232181 2.4692524-.0452755 3.678919-.0116091.2275381-.1381481.3970307-.342468.4690071-.2217335.0615281-.417927.0023218-.5665233-.164849-.761556-.8625551-1.560261-1.6960873-2.3903106-2.4947924-.8110044-.7861547-1.2824164-1.717378-1.4185131-2.8321648l-.0105653-.0933246c-.126539-1.2061839-.3099625-2.4274597-.545627-3.6522181-.0452754-.2321817.0429536-.4423062.2356645-.5537534.1973544-.0905508.4283752-.075459.6257296.0731373zm-56.8949644-.0742982c.1938717.1114472.2960317.3122844.2507562.5433052-.2379862 1.2259194-.4190879 2.4437124-.5467879 3.6498963-.1358263 1.1678739-.608316 2.131428-1.4430092 2.9382594-.825406.7940614-1.6217892 1.6217892-2.3810233 2.4808615-.1474354.1671708-.355238.2391471-.5642016.1660099-.2066417-.0742982-.342468-.2321817-.3540771-.4585589-.0684936-1.2085057-.0847463-2.4344251-.0464363-3.678919.0359882-1.2143103.5537534-2.2927943 1.5149856-3.1495448.9542668-.849785 1.941039-1.6589382 2.9591557-2.4286205.1811018-.139309.4260535-.164849.6106379-.0626891zm51.1426628 2.5621251c.9507841.6164424 1.8771891 1.2723557 2.7780541 1.9630962.1741362.1323436.2310208.3401462.1787799.558397-.0592064.1961935-.2321817.3413071-.4492716.3714907-1.1643912.1602054-2.3032425.3668471-3.4142319.6245688-1.0750013.2577217-2.0223026.126539-2.8964667-.3912262-.8671986-.5177652-1.7564545-.9960595-2.6608023-1.4406874-.1741362-.0859072-.2588825-.2646871-.2472735-.4852598.02554-.2170898.152079-.3854216.3494335-.4655243.9620062-.3979981 1.9532769-.7560013 2.9747064-1.0775864l.2793201-.0868048c1.0738404-.3447898 2.1465198-.1927108 3.107752.4295362zm-42.893247-.4376625c1.1179549.3436289 2.2022434.7325332 3.2551874 1.166713.1973544.0789418.3088017.254239.3331807.4713288.0243791.2136072-.0708154.3993526-.2333426.4782943-.9078304.4423062-1.7912818.9229223-2.6619632 1.4383657-.8741641.5189261-1.8237872.6501087-2.9092366.4005134-1.1109895-.2577217-2.2475189-.4643634-3.413071-.6268906-.2182508-.0278618-.380778-.1845844-.4365016-.380778-.0661718-.2089635.0034827-.4237316.1811017-.558397.8927386-.6872578 1.8156609-1.3396884 2.7618013-1.952648.9612323-.622247 2.0339117-.7754869 3.1228439-.4365016zm40.8303126-6.8621302c1.1469776.5595579 2.2695762 1.1701958 3.3643129 1.8203046 1.0863007.6436076 1.7941304 1.5791153 2.0616314 2.7186199l.0175557.0780086c.2751353 1.2143103.4899034 2.423977.6547524 3.6208736.0301836.2263772-.0603673.4156053-.2484344.5282134-.2043199.0998381-.4086398.0812636-.5850979-.0557236-.9159568-.7023497-1.8551318-1.3687111-2.8210077-1.9956017-.976324-.6315342-1.6252719-1.4871238-1.9654181-2.5969523-.354077-1.1609085-.7661996-2.3241388-1.2352066-3.4827255-.0870681-.2170899-.0417927-.4399843.126539-.5874197.1764581-.126539.406318-.1578836.6303733-.0475973zm-41.257527.0475973c.16601.1474354.228699.3633644.1416309.5804542-.470168 1.1562649-.8811296 2.321817-1.2386894 3.4804037-.34702 1.0896654-.9669917 1.9294918-1.9017096 2.5548438l-.0764785.0502349c-.9612322.6245687-1.8992463 1.2886084-2.8070767 1.9851535-.1764581.1358263-.3958698.1671708-.5862588.0545627-.1892281-.1126081-.2925489-.2937099-.2635262-.5154434.1671708-1.1992185.3819389-2.4077242.6570742-3.6220345.2670089-1.1841266.9821286-2.1488416 2.0919571-2.8047549 1.0982194-.6512697 2.220818-1.2595857 3.3712783-1.8203045.2043199-.1009991.4504325-.07662.6117987.0568845zm36.0856797 3.4954955c1.0517831.4225707 2.0884744.888095 3.1019475 1.3919293.1973544.0986772.2925489.2925489.2832617.5166042-.0185746.203159-.1636881.3796171-.3563989.457398-1.1156331.3772952-2.1987607.7975441-3.2447393 1.2630684-.9747866.4450359-1.906712.5076181-2.8374791.1963011l-.0775621-.0268084c-.9484622-.3378244-1.9120163-.6373388-2.8848576-.8973823-.1798118-.0471458-.2943871-.1926642-.3202543-.3905906l-.0036392-.0354628c-.0290227-.2205726.0615282-.4109616.2379863-.5270525.9473013-.6268906 1.9387171-1.2189539 2.968443-1.7703854 1.0041858-.5409834 2.0722216-.6036724 3.133292-.177619zm-28.3981436.1729753c1.0308867.5525925 2.0223026 1.1458167 2.9696039 1.7715464.177619.1149299.2530781.3099626.2368254.5258915-.0174137.215929-.1462745.380778-.3366635.4306971-.8606202.2311498-1.7148195.4916519-2.557706.7823217l-.3155425.1104169c-.9565886.3413071-1.9131772.2855835-2.9289722-.164849-1.040174-.4666852-2.118658-.8915777-3.2308083-1.268873-.2066417-.0719763-.3366635-.2565607-.3529162-.4585588-.0243791-.2170899.0847463-.4179271.267009-.5096388 1.014634-.5061561 2.0490035-.9693586 3.1007866-1.3919293 1.0610703-.4260534 2.1453589-.3691689 3.1483838.1729753zm24.9653372-6.9375891c1.2328848.3308589 2.4553215.7093151 3.6591836 1.1376903 1.1861905.4233962 2.0627228 1.2041757 2.5438645 2.2739694l.0321914.0733876c.507317 1.141173.9612322 2.2869897 1.3547802 3.4339673.0580455.2078026.0058046.4109616-.1602053.5595579-.1799409.1381481-.3854217.1567226-.5850979.0557236-1.0308868-.5131216-2.0838308-.9856113-3.1530275-1.4139865-1.0773231-.4341798-1.8597754-1.142334-2.4262988-2.1708989-.570006-1.0738404-1.2003793-2.1337498-1.8841544-3.1808893-.1277-.1961935-.1253782-.4225707.0267009-.5978679.1311826-.1613663.3517552-.2345035.5920633-.1706535zm-24.0737595.1660099c.1369872.1799408.1567227.4016743.0290227.5978679-.6837751 1.0483003-1.3129875 2.1082098-1.8864763 3.1785674-.5630406 1.0297259-1.3629065 1.7436846-2.4413905 2.1778644-1.0703577.4283752-2.1221408.9008649-3.1518666 1.4139865-.1857454.0928727-.406318.0824245-.571167-.0650109-.164849-.1462744-.2321817-.3436289-.1578835-.5560751.3900652-1.1469776.8335323-2.2904725 1.3385275-3.4304846.4899033-1.1121504 1.3768374-1.91666 2.5923086-2.3496788 1.2015403-.4260535 2.4146897-.8045096 3.6440918-1.1330467.2379862-.06385.4759725.0058045.6048333.1660099zm11.7095228-1.9349913c.0853286 0 .154724.0492483.1869417.1205256l.0078489.019965 1.0541106 3.2709318 3.4364177-.0051714c.0870525 0 .1689335.0543.1947907.1396287.0260726.0750576 0 .1580819-.0589652.2138868l-.0168825.0145182-2.7822314 2.0108258 1.068763 3.2674842c.0267191.0861905-.0034476.1766906-.0741239.2266812-.0387857.026719-.0758477.0362-.1198049.0379238-.0344762 0-.0684008-.007171-.0978021-.0237196l-.0211408-.0142042-2.7779218-2.0228925-2.7727504 2.0228925c-.0706763.0534381-.1672097.0534381-.237024 0-.0647866-.0458247-.0969824-.1256886-.0826457-.2050697l.0050742-.0216115 1.0713486-3.2674842-2.7839551-2.0108258c-.0698144-.0543001-.1017049-.146524-.0749858-.228405.0244925-.0774279.0946121-.1302315.1731812-.1384945l.0216095-.0011342 3.4321081.0051714 1.0584201-3.2709318c.027581-.081881.1025668-.1404906.1896193-.1404906zm10.8991702 3.8725476c.5967069.9136349 1.1516212 1.8365572 1.6624209 2.7664449.0789418.1242172.0870682.2612044.0452755.3970307-.0452755.1497572-.1253782.2426299-.2612045.3157671-.9298877.4887425-1.8237872 1.0088295-2.688664 1.5544565-.1985154.1276999-.4353407.1068036-.5943852-.0603672-.9496231-.9751632-1.9735444-1.9189818-3.0659593-2.8186859-.1404699-.1311826-.2124463-.3006753-.1857454-.4887424.02554-.1880672.1381481-.330859.3111235-.4028353 1.3257575-.5572361 2.7072386-1.0541049 4.1374779-1.4801583.2426299-.0731373.4991906.0174136.6396606.2170899zm-21.0960292-.2205727c1.4267565.4295362 2.8024331.9252441 4.1223861 1.4836411.1694926.0719763.2867444.2147681.3134453.4028353.0255399.1880671-.0475973.3575598-.1892281.4887424-1.0079174.8354395-1.9577774 1.7069146-2.8467918 2.6060598l-.2040758.2079824c-.1567226.1694927-.4063179.1927108-.608316.0650109-.8567505-.5467879-1.75065-1.0691967-2.6735723-1.5591001-.1381481-.0742982-.2124462-.1660099-.2600435-.3157671-.0406318-.1369872-.0348272-.2728135.0452755-.3947089.5049952-.9298877 1.0541049-1.85281 1.6473291-2.7641231.1416308-.1996763.4132834-.2948708.6535915-.2205727z" fill="#fff" transform="translate(-16 -16)"/></svg>