<svg height="92" viewBox="0 0 92 92" width="92" xmlns="http://www.w3.org/2000/svg"><g fill="#fff" fill-rule="evenodd" transform="translate(-20 -20)"><path d="m16 16h96v96h-96z" fill="none"/><path d="m99.3454545 20.8c3.6872895 0 6.7811445 2.5407919 7.6262955 5.9671054l.021893.0911034c2.988111 1.6829271 5.006357 4.8857567 5.006357 8.559973v66.7636362c0 5.422432-4.39575 9.818182-9.818182 9.818182h-66.7636362c-3.6741414 0-6.8769153-2.018164-8.5602406-5.006411l.0029138.000672c-3.473614-.811408-6.060855-3.927966-6.060855-7.6488065v-70.690909c0-4.3379457 3.5165998-7.8545455 7.8545455-7.8545455zm.0839388 2.88h-70.7748478c-2.7193313 0-4.9290387 2.1819591-4.9745455 4.8906067v70.7748478c0 2.7193315 2.1819591 4.9290385 4.8906067 4.9745455h70.7748478c2.7193315 0 4.9290385-2.181959 4.9745455-4.8906067v-70.7748478c0-2.7193313-2.181959-4.9290387-4.8906067-4.9745455zm-42.236666 42.9381818c2.313571 0 4.1892692 1.8755199 4.1892692 4.1890909v.560529l-.0003965-.0002819.0003965 17.2433893c0 2.313571-1.8756982 4.1890909-4.1892692 4.1890909h-17.8036364c-.7248731 0-1.4067448-.1841111-2.0014034-.5081217l-.0930587-.0522559c-.0535891-.0309979-.1064278-.0631489-.1584821-.096419l-.0977159-.0643917-.0381588-.0262243c-.0582871-.04053-.1155346-.0825344-.1716631-.1259421l-.1010167-.0806314-.0583179-.0489243-.0666412-.0581627-.0639475-.0581934c-.0743372-.0690507-.1462643-.1408777-.2155193-.2152268l-.0865747-.0958464c-.0464713-.0530628-.0915789-.1072515-.1353201-.1625702l-.0445288-.0573243-.0968523-.1321932-.0598447-.0874385c-.0236356-.0354851-.0467799-.0714087-.0693844-.1077033-.0444711-.0714071-.0868386-.1442226-.1270281-.2183786l-.0692397-.1334359-.0476123-.099209-.0281344-.0619836-.0479183-.1123158-.0505914-.1297183-.0319036-.0891287-.0227809-.0678928-.036986-.1195378c-.011195-.0382106-.0218524-.0766185-.0319722-.115244-.0100688-.038432-.0195984-.0770493-.0285883-.1158734-.0233666-.100916-.0430798-.2031857-.0590034-.306705l-.0161298-.1155588-.0175019-.1663254-.0066173-.0887677-.005277-.1016946c-.0022435-.0562799-.0033767-.1128838-.0033767-.1697523v-17.8036364c0-2.313571 1.8755199-4.1890909 4.1890909-4.1890909zm25.9337922 1.1274467 7.3247982 5.5119618.0900272.0673132.1438158.1132779.1282944.1074477.0918995.080959.1443321.1344387.0764174.0750608.1256646.1298113.0328746.0353536.0748752.0828273.1166428.1358699.0702796.0862402.0744772.0953225c.0589766.0771692.1158382.1556977.1705548.2354941l.0943995.142229.0556511.0884496.0627631.1043268c.034419.0586303.067764.1178531.1000218.1776301l.0847022.163233.0303905.0618964c.030746.063593.0602906.1277171.0886349.1923593l.0564111.1332048.038845.0975912.0495419.1326787.0113779.0319477c.0187633.05318.036741.1066126.0539448.160326l.0273475.0877708.0454891.1581918.0223823.0846803.0350868.144466.0352064.1640686c.1988693.9952763.1455726 2.0613582-.1814077 3.1098877l-2.7345913 8.8191388c-.7813118 2.5054371-3.0275832 4.1089169-5.5668466 4.1089169h-8.9850857c-.9011721 0-1.753141-.2019591-2.5166169-.5745199l-.1320524-.0665976-.0564261-.029798-.1268594-.0700191-.1384297-.0813515-.0338924-.0207312c-.0411513-.0253707-.0818617-.0511897-.1222523-.0775303l-.0729118-.0483494-.1297955-.0901407-.0402087-.029017-.1265775-.0948663-.0914582-.0720034-.0578781-.0471311-.0712327-.0597332-.0843938-.0733286-.0782161-.0705456-.1037754-.0976353-.0222105-.0215192c-.040521-.039466-.0804935-.079525-.1199526-.1202134l-.0603446-.0631403-.1240204-.1357746-.106391-.1233988-.0931057-.1137078-.1085441-.1399233-.0537463-.0724591-.0786966-.1102043-.0804354-.1180818-.0379787-.0578127c-.0305236-.0470247-.0603541-.0943288-.0896365-.1421431l-.0485813-.0806448-.0659699-.1139645-.0830312-.151486-.054756-.1053713-.0455214-.0912802-.0676002-.142405-.046917-.1042045-.0375045-.0868359-.0357876-.0860846-.0505324-.127516-.0451054-.120491-.0275003-.0769565-2.7345913-8.8191388c-.7813118-2.5054371 0-5.1110918 2.1486075-6.614354l7.2271341-5.5119618c2.0509435-1.5032623 4.7855348-1.5032623 6.8364783 0zm-23.8392468 3.0616442h-17.8036363c-2.2860285 0-4.1443736 1.8311305-4.188296 4.1066521l-.000963.0824388v14.4884063c.334391.8006306 1.1144157 1.3687283 2.0301092 1.3943281l.0646043.000902h17.8036364c1.2315777 0 2.2339891-.9811773 2.2681889-2.2044866l.0010124-.0646043v-17.8000614l-.0545716-.0018869zm20.2368723 1.0611411-.0922856.0663056-7.2271342 5.5119618c-1.7391392 1.2167799-2.5824662 3.1558151-2.4263962 5.1793466l1.692871 5.4594122.0215171.0588826c.6229881 1.6766739 2.0041451 2.6999733 3.6368586 2.734761l.0861618.0009164h8.9850857c1.6990987 0 3.16174-1.048675 3.7060987-2.6743928l.0268846-.0831586 2.7355124-8.8221009c.5370615-1.7221982.0288974-3.4352773-1.2843989-4.4427095l-5.1599515-3.882557c-1.5877389-.3931934-3.2967096-.0954158-4.7008235.8933326zm-31.2332359-36.6684138.2277893.0019419.2290869.0058815.2065921.0086979.2056727.0118726.1002041.006951.1476019.0116369.1858339.0170299.2311068.0249.1943707.0241583.1992954.0278453.0906775.0137063.1313537.0210124.2219829.0386425.1922141.0366672.1864689.0384438.1321207.0289667.1174335.0269592.1908494.0462683.2100532.0544748.2337717.0650605.1241417.0364731.1758046.0539638.2685052.0877232.1667626.0577631.1841106.0667419.1728115.0655252.169117.0668672.2068747.0855519.2011001.0872023.1257375.0565844.1884038.087811.1170067.0563915.1668922.082943.2029718.1049312.1684605.090551.1186129.0656827.1841574.1052028.1800288.1067268.1662498.1020615.1334286.0844089.1838973.1200794.1546695.1044476.2119955.14846.1240712.0898206.1837885.1371746.1445018.111419.0683336.0538145.1748471.1410846.1441331.1200779.0858593.0732059c.0941488.0809749.1870912.1632266.2788277.2467517l.1989817.1849605.1244447.119651.1412146.1396572.129193.1315375.1220616.1277317.1762103.1906187.1177713.1317125.1308704.1506393c.0794488.0928614.1576397.1868727.2345321.2819907l.1618817.2043622.107347.1402467c.0772376.1023239.1530473.2058751.2273698.3105849l.1293877.1856587.1011664.1500768.0757782.1154192.0520631.0808642c.0654733.1025179.1295532.2060003.1922166.310426l.1291574.2200716.0926809.1642412.135566.2507513c.0579581.1100585.1143799.2210129.1692528.3328648l.0697868.1444947.1190321.2575794c.0331527.0738428.0656382.1480422.0974518.222597l.0440115.1043974.0642941.1572698.0772223.1971022.0674372.1803335.0363219.1006493c.0359774.1009982.0707104.2024492.1042237.3044535l.0487961.1516503.0840999.2777664c.3374307 1.1607101.5185024 2.3892041.5185024 3.6599896 0 7.2299094-5.8609997 13.0909091-13.0909091 13.0909091-4.2386396 0-8.0067766-2.0144615-10.3992425-5.1382161l-.0786187-.1036125-.0990675-.1337981-.1250019-.1741315-.1043716-.1499814-.1352349-.2013814-.1023704-.1579311c-.0640492-.1003363-.1267662-.2016354-.188127-.3038517l-.1245567-.2120492-.0742417-.1308453-.095629-.1738701-.1194448-.2265343-.0827306-.1634751-.0943823-.193798-.0883271-.189125-.03429-.0755845-.075438-.1710534-.0560849-.1317068-.0628772-.1525763-.0946952-.2409317-.0704365-.188954-.0591247-.1659408-.041947-.1222337-.071983-.2196836-.0735332-.2393378c-.0347322-.1170263-.0678826-.2347949-.0994142-.3532237l-.0561099-.218353-.0284184-.1170131-.0337027-.1453466-.0354153-.1615687-.0393918-.1924822-.04996-.2686887-.0407612-.2466422-.0250003-.1680254-.0221064-.1628342-.0287744-.2397588-.0134978-.1276486c-.0098361-.0975837-.0185972-.1954385-.0262755-.2935973-.0150176-.1919725-.0258946-.3851357-.0325403-.5793797l-.0059228-.2327042-.0018617-.2230393c0-7.2299095 5.8609996-13.0909091 13.0909091-13.0909091zm2.0945454 4.1890909c-6.6592836 0-12.1572146 4.9723422-12.9835884 11.4068223 1.1372744 4.9634284 5.5807788 8.665905 10.889043 8.665905 6.1695227 0 11.1709091-5.0013864 11.1709091-11.1709091 0-2.7497314-.9934999-5.2674185-2.641122-7.2136836-1.9004319-1.074679-4.0961967-1.6881346-6.4352417-1.6881346zm30.9232834.0515971c-.7300679.1514144-1.4127236.6360785-1.8392672 1.4539926l-9.5767507 18.5669192 20.2101866.0002184c.5446737 0 1.0190864-.8979314.6580188-1.692257l-.0226727-.0475271zm.7496437-2.7350983 10.3862532 20.1362966.0553824.116172.0427843.0984054.0256406.0634331.0227242.0595545c.721174 1.9453874-.5078466 4.1541341-2.4252503 4.2015886l-.0630094.0007783h-20.7725064c-.1268958 0-.250857-.0093021-.3715402-.0272255l-.0604254-.0098068-.1001257-.0195545-.0763022-.017777-.1169176-.0323995-.0660303-.0210872-.0739041-.0261328-.0609695-.0235394-.0610009-.025442-.0663393-.0298131-.0677201-.0329347c-.0315279-.0159708-.0626994-.0325464-.0934933-.0497515-.1026496-.0573155-.2009931-.1215887-.2948033-.1921498-.0258847-.0195069-.0514794-.0394983-.0767201-.0599558l-.0742757-.0624281-.0388707-.0344864-.0532137-.0494657c-.0375133-.035739-.0740921-.0726079-.109704-.1105129l-.0594679-.0653008-.0523453-.0608881-.0629416-.077975c-.1271949-.1630753-.2384662-.3406618-.3320439-.5291984l-.0486442-.1025211-.0172477-.0387293-.0460898-.1108503-.0368177-.0979249-.0122323-.0347742-.0253676-.0764713-.036991-.1246185-.0130913-.048954c-.0071109-.0274379-.0138753-.0549697-.020294-.0826171-.016419-.0707102-.0305785-.1422008-.0424049-.2143085l-.0158916-.1079261-.0134605-.1199848c-.0140197-.1493806-.0180311-.3007238-.0114396-.4528514l.0029335-.0564775.0063626-.0862458c.0078339-.0900113.0194248-.1801603.0348957-.2702122.0162626-.0946714.0368299-.1892977.0618335-.2835343.0261544-.0985767.0571711-.1967492.0932072-.2941723.0135015-.0365017.0277133-.0729119.0426389-.1091999l.0170685-.0407148.0348158-.0786293.0426343-.0893999.0310088-.0609894 10.3862532-20.1362966c.1037497-.1989441.2226516-.3781723.3537025-.5376845l.0205499-.0247333c.0245743-.0292481.0496188-.0578781.0750596-.0858248l.0359518-.0387613.0576995-.0592805c.029848-.029772.0601739-.0586685.0909496-.0866895l.0405581-.0361952.073325-.0618723.075664-.0593418.0119386-.0089671c.0239413-.0178769.0480839-.0352736.0724262-.0521972l.0817263-.0545709.0725403-.0448205.0633015-.0364796.028967-.0159057c.0425134-.0229915.0855352-.0446964.1289769-.0650948l.0831928-.0372524.0176717-.0074547c.045254-.0188897.0909314-.0364023.1369489-.0525267l.1374563-.0437581.0603771-.0164994.0794778-.0192609.1035767-.0209985.0893779-.0144654.0758503-.0096644.1012581-.0092115.0838979-.004464.0316163-.000941.051467-.0006661.0795504.0010809.0489603.00194.0919005.006273.1151833.0127468.1085941.0170609.1109477.0225868.0746692.0182014.0735079.0203321.0766633.0238176.0937814.0328709.0465676.017894.0738914.0306031.0670751.0301991.1118171.055696.0944517.0525489c.0287077.016771.0572329.0341828.0855155.0522101.0751604.0478996.1486881.1002124.2202069.1568977l.1072935.0896828.0396109.0355828.0554141.0521935.0547437.0545017c.0238195.0243803.0473238.0493285.0704983.0748446.0995668.1096276.1930443.2297379.2792688.3603318l.020069.0307898c.0392236.0609658.0767957.123996.1127014.1892432z" fill-rule="nonzero"/></g></svg>