<svg height="104" viewBox="0 0 100 104" width="100" xmlns="http://www.w3.org/2000/svg"><path d="m113.01942 32.8144983.020018.0098179c.165399.0829469.273368.2214276.322923.3764672.016251.0503109.026625.1037116.030124.1595913l.00132.0423649v57.3877972c0 .2362991-.128277.4529153-.3331.5670313l-.031292.0163384-2.83891 1.385826-45.8518999 22.3750135c-.0346007.016864-.0707827.030676-.108047.041202l-.050753.012158-.0362563.006098-.0322812.003635-.0374103.002161h-.0356397-.0197617l-.0350828-.003906-.0316926-.004519-.032442-.006235-.0209516-.004964c-.0439702-.011178-.0865368-.026909-.1270087-.046763l-48.6938339-24.4947963c-.2087171-.104993-.3440885-.3134978-.3574423-.5450328v-.0348929-56.6561514c0-.0713456.0111288-.1390573.0315006-.2019377.0492485-.1543041.1564859-.2922527.3207143-.3755213l.0210556-.0102577.0192882-.0087258 45.6049158-18.8030678 2.7984614-1.1541868c.1455081-.0600156.3074201-.0649602.4556732-.0147682l.0367613.0136967 48.9708316 19.9492496c.013604.0053144.027018.0110786.040218.0172777zm-44.0739277 21.8875496-4.2401906 1.9929399v56.8159892l4.2401906-2.069054zm-52.9271601-20.276865v55.233485l47.3886374 23.8383521v-56.8018699zm93.2382638 57.3455469-.000486-56.0113483-9.4417965 4.4367257.0000563 4.9657733c0 .2401479-.1324492.4596558-.3425238.5721822l-.0305328.0153382-13.0556071 6.1355764c-.4213691.1980255-.9042516-.0986835-.924609-.5573792l-.0006665-.0301412-.0001531-4.3561895-15.216453 7.1505644v56.7165052zm-19.5434081-16.7722954.0242893.0318531 4.4173283 6.061015c.0395702.0549446.0711739.1061134.09567.157148.0838687.1676591.1237645.3514814.1176441.5318837-.0018257.1247791-.0258522.2498179-.0706448.3692163l-.0204641.0508083-4.580923 10.5619556-.0197492.0415277-.0368599.0703699c-.0966207.1754796-.2269918.3308634-.3800328.4555369-.0863041.0723916-.1804735.1348496-.2818565.1871863l-.0616902.030186-8.8937183 4.0971168c-.4694359.2166745-1.0235716.0808308-1.3424538-.3224168l-.0260221-.0342212-4.3016328-5.9016634-.0137337-.0175312c-.014965-.02055-.0287817-.0414948-.0393378-.0592452l-.009391-.0165528-.0269696-.0462245-.0311997-.0607407c-.1114462-.2314395-.142271-.4928712-.0873917-.740951.0122109-.0580164.0289189-.1154556.0499987-.1717543l.0225323-.0558976 4.553082-10.4992927.0157267-.0389036c.1421157-.3249427.3923763-.589687.7102741-.7500137l.0481868-.0232604 9.0556737-4.1723345c.3900252-.1787095.8484556-.0676569 1.113665.2652zm-52.3397993.6069266.0141952.0340833 2.6607175 6.682464c.0484172.1228445.1432734.2417601.2493559.3161177l.0291834.0191441 5.9379169 3.6318194c.3111158.190063.5391821.520862.6039103.852964.0651728.3188386-.0239664.6219093-.2870021.7797904l-.0311231.0175654-4.2465019 2.2201902-.0015738.0016423-.0305599.0158852-.0014262.004884c-.0025023.010934-.0038176.0253769-.0033402.0426953l.0010974.0182535.0024271.0200297 1.0198185 6.4571907c.1332973.8374154-.7192277 1.0818391-1.3157911.5219954l-.0269359-.0260021-5.3124432-5.2933465c-.0207121-.0207517-.0391227-.0371186-.0593341-.0525698-.0746171-.0582834-.1420351-.0867612-.1854422-.0898035l-.0135567-.0000781-.2238897.0146161-5.0826761.3453002c-.0786444.0053341-.1577029-.0017299-.2334756-.0196728l-.0450398-.0120591-.0440736-.014597c-.335129-.1157521-.6374497-.4364831-.7647357-.7923236-.0529388-.1491297-.073703-.3018136-.0558952-.4477851l.0073733-.0483945 1.0081229-5.5146038c.0020982-.0116009.0027298-.0197591.0021632-.03522-.0014678-.0730265-.0306186-.1644422-.0858703-.2543476l-.0219398-.0336049-4.2994226-6.2333287c-.4658472-.6756833-.1548832-1.5304134.6332916-1.3088572l.0350811.0104769 5.9357345 1.8849368c.0125334.0040061.0232591.0065732.0321227.0080745l.011892.0014992.0048171.0000505 1.9861976-3.1570054.6534564-1.0407391c.377741-.6056827 1.2451093-.2155329 1.5431742.47267zm50.4172329.215358-7.9514188 3.6638265-.0263056.0118018c-.1803235.0832233-.3263401.2259461-.411426.3961299l-.0172904.0368766-.0153222.0379745-4.5565504 10.5076335c-.014607.0337918-.0256852.0686244-.0337099.1066692-.0230711.1043227-.0117261.2127682.035379.3166017l.0206871.0408196.023595.040344.0120261.0155171 1.7485123 2.398407 7.9510759-3.6629434c.0281427-.0132036.0545059-.027006.0799526-.042045l.0375904-.0235657.0368627-.0258989c.1058767-.0745395.1947322-.1713611.2654469-.2934282.0125507-.0197729.0240436-.0402188.0345093-.0615328l.0149318-.0326467 4.5697433-10.5384534c.0166791-.03856.0271007-.0753011.032947-.119185.0104551-.0663383.0068153-.131462-.0117967-.1971299-.0117637-.0436106-.0304437-.0865602-.054363-.1254245l-.0188956-.0283288zm24.3047785-41.3955361-1.540471.7243071v55.9874914l1.540471-.7520589zm-75.7239258 41.0660843-.6452629 1.0278761-1.770771 2.8143757 1.7992419 2.6091261c.0236359.0340241.045672.0692799.0659412.1052943l.0290575.0545314.0262817.0553145c.0815066.1799816.1168018.3698912.0960515.5466593l-.0063609.0439049-.0251018.1403057-.9848524 5.3778225c-.0121802.0663273.0133827.1692028.0777951.2765198.1013709.1693175.2604812.2854664.3580436.2933812l.0175426.0002022 5.3025372-.3596055c.0957268-.0079349.1931373.0044217.2803325.0320166.156863.0450859.3084229.1346809.4444776.258865l.040341.038283.6932193.6908856 4.0662141-2.126019.0017798-.0069394c.0021246-.012657.0026361-.029322.0008675-.0496319l-.0025532-.0215113-.0042215-.0238605c-.0285759-.1465838-.1352495-.3083176-.2753677-.4062185l-.030521-.0199729-5.9380004-3.6318705c-.2244977-.1372404-.4157023-.3583098-.5240793-.6037199l-.0193379-.0462851-2.660301-6.6814127-.0147986-.0341796c-.0690205-.1483143-.1896361-.2713235-.3116531-.32798-.0263068-.0122151-.0493285-.0197073-.0674941-.0234374l-.0126891-.0021071zm7.2824076-17.9096602.0375432.0170058 3.334828 1.561323 9.4307115 4.413214c.6699288.3127599 1.200115 1.0841662 1.2211884 1.7820272l.0006466.0464093-.0322081 12.9049155c-.0020501.8158633-.700858 1.2072969-1.4649461.8735164l-.0376279-.0170015-12.7655877-5.9760154c-.288203-.1345916-.5547438-.3554431-.7631673-.6247124-.2090996-.2661029-.3582188-.571927-.4219654-.8736564-.018887-.0871027-.0300853-.1744994-.0338091-.2620733l-.0013948-.0657118.0322013-12.9071836c.0020522-.8146437.7011904-1.2059261 1.4635874-.8720568zm3.5580168 2.3819321-.0220448 8.7399193c0 .1814837.064271.3939418.1838222.6009785.1214198.2118329.2929117.4012713.4876348.5360793.0407875.0293882.083881.0559599.1289429.0797176l.0457057.0228197 8.9715309 4.198922.0221481-8.7420129c.0010547-.4236281-.3419297-.9568987-.7679644-1.1976597l-.0401761-.0217021-.0394145-.019355zm57.4185604-10.5595742c2.261096 1.3535706 2.379858 5.0026224.430411 8.3311728l-.059707.1007644-.053406.0879571.005407.0053787-7.6177219 11.6153619c-.1465611.2238133-.3660462.3825363-.6095169.4490046-.2748361.0828993-.5718223.0530019-.8296157-.0857294l-.0425922-.0241289-7.6255866-4.567346.0242102-.0254796-.042358-.034671c-.3992506-.3345229-.7171577-.7621205-.9471601-1.2668167l-.0355847-.0803273-.0310771-.074125c-.7803653-1.9167304-.2784162-4.6709661 1.3198108-7.1076471 2.1249557-3.2414822 5.5378614-4.9498263 7.9060173-3.9537761l.0714401.0310123.0240943.011164.0818018-.1142021c1.4220922-1.9629331 3.3504384-3.3303503 5.1864017-3.6970121l.083387-.0159758.079715-.0139978.084614-.0135801c.961685-.1461403 1.854541-.0010092 2.597016.4429992zm-80.8473079-1.7280605c1.1245491.0079994 2.3454496.3092805 3.5982825.8955908 4.7382393 2.2177809 8.555959 7.8778253 8.5440416 12.6846528-.0031508 1.0861468-.2015153 2.0609412-.5829536 2.8916835-1.3189457 2.8659147-4.6223688 3.6622769-8.2801892 1.9507939-4.7375352-2.2174782-8.5544472-7.8786327-8.5425285-12.6860263.0090699-3.4947172 2.0633216-5.7203151 5.1689174-5.7366947zm77.9210469 2.0116601-.030869.0075907c-1.667129.4191255-3.4331483 1.7507547-4.7179474 3.6281409l-.0802169.1187691-.2013793.1939208-.2108788-.1199619c-2.0125989-1.1449005-5.333678.4090323-7.4040726 3.5673388-1.4356365 2.1887424-1.917366 4.6237651-1.3327032 6.3170662l.0233189.0655954.0093627.0252454 4.3554024 2.6094316c.0491369.029609.101208.0487377.1549567.0575685l.0324404.0040641.0327827.0016556c.0964927.0007987.1890349-.0272504.2639861-.0799494.0387167-.0272472.0723479-.0591379.1003263-.095345l.019915-.0279596 7.402585-11.2867642.068873-.106922c1.002566-1.5598246 1.530867-3.2498879 1.518057-4.717318l-.001506-.0914213zm-77.7136194-1.3569194-.0197699.0484093c-.2734702.6865789-.4166945 1.485725-.4192673 2.3777985-.0112471 4.5480289 3.6541924 9.982778 8.170021 12.0964829 1.0209669.4778 2.0085728.7507176 2.9255718.8179083l.1015963.006619.0879528.0042616.023676-.0581481c.2479739-.6289958.3881815-1.3489252.412211-2.1450591l.0026415-.1142503.0011208-.1102441c.0112476-4.5467566-3.6544309-9.9813768-8.170077-12.0949707-1.0204338-.4775504-2.0090985-.7506503-2.925767-.8178947l-.1015538-.0066244zm-2.6979343-16.6681507-4.3146824 1.7788773 47.0781738 22.1242294 4.0128201-1.8863143-4.0453003-1.9034686-.030884-.0154728-38.9496826-18.3321849zm59.8026405 12.5063469-15.2565391 7.0256 3.7555881 1.7675169 15.0181328-7.0570845zm21.9648592-11.5459057-38.2954436-15.7546117-10.202831 4.3138367c-.0491145.0207651-.1001563.0352224-.151958.0433664l-.0389724.0049238c-.0130269.0012468-.0260831.0020989-.0391504.0025563l-.0392208.0001877c-.0541282-.0013761-.1081324-.0095231-.1607172-.0244472l-.032521-.0101595-.0373145-.0140341-3.6816991-1.5152408-12.132265 5.0024739 2.6450811 1.0877234c.5228387.2149897.536892.9436778.0371857 1.1841913l-.0312362.0141068-13.9879048 5.9145691 37.3922911 17.5992171 16.5301317-7.6114724c.0830106-.0382236.1720034-.0580065.2611641-.0594271l.0381994.0005149c.0763651.0032773.1522434.0200379.2239728.0502325l.035502.0162165 4.7226859 2.3310841 11.5149081-5.4109616-3.7008959-1.7421995-.0171424-.0067597-.0295186-.0130129-.0298427-.0149566c-.0982402-.052221-.1836652-.1290376-.2446403-.2256309-.0170574-.0271922-.0322473-.0558351-.0452579-.0859116-.0174681-.0403478-.0309512-.083233-.0399127-.1284595-.0042469-.0210744-.0074596-.0426983-.0096204-.0647989l-.0025991-.0368681-.0006649-.0306605c0-.0550002.0068804-.108863.0199886-.1605819l.0084937-.0303958.0128897-.0378247.0132606-.0327283.0100551-.0219179.0203263-.0387481.0217669-.0356226.0281743-.0395427.0151115-.0189985.0152504-.0177009.0234863-.0249444.0160599-.015506c.0236953-.0224205.0492688-.043079.0764789-.0617949l.005036-.0032572c.0191207-.0130081.0390839-.0250109.0598072-.0359585l.0316449-.0156236zm-4.5441627 8.1916645-11.7573716 5.5177495v3.9427102l11.7573716-5.5255394zm-40.5353851-7.499869c.1202415.0243716.2368069.0625884.3413972.1116093l.0512587.0253966 14.9958573 7.2366721c.3978879.2043616.3861219.7715048-.0068864.9648528l-.02872.0131649-3.6172453 1.542288-6.9334501 2.9575177c-.403865.171768-.8620996.1654037-1.2569725-.0139899l-.0490206-.023325-11.3259338-5.4858942-3.6051609-1.7455512c-.4080685-.1968427-.4040871-.7737388-.0067598-.9710224l.0283585-.0131385 10.4951804-4.512726c.0714003-.0297786.1455872-.0538928.2202963-.0719445l.0560944-.0123958.0609346-.0116719c.1930754-.0331869.3902959-.0295901.580772.010158zm-.5130399 4.3265061c-.04005.0079977-.0795797.0189442-.1162604.0320077l-.0356448.0137383-6.2426749 2.6839119 10.6899453 5.1778916c.2106573.1048362.4543313.1237231.6774667.0549594l.0443373-.0149219.0436945-.0172622 6.2757164-2.677196-10.7661537-5.1952584c-.0294362-.0132175-.0597849-.0248041-.090893-.0347319l-.0472127-.013644-.0500562-.0115089c-.1248561-.0260515-.2530795-.0257795-.3822645.0020144zm47.2340037-4.3425197-9.0032841 4.1446009 3.4577831 1.6274593 9.138798-4.2943959zm-40.9367376-19.1481275-1.0959547.4521442 2.3395546.9619928 44.8801377 18.4631663 1.239745-.5826266zm-27.2214815 11.2240817-13.6255093 5.6178833 2.4158716 1.137339 13.6258339-5.7616736zm37.0943871-2.4048389c3.511652 1.8625379 4.9560133 4.7327021 3.1192189 6.6929472-.3152123.339526-.7244016.6414468-1.2231626.9024097-3.2785193 1.711855-9.8969972 1.2399617-13.9300714-.8965026-1.5255813-.8094529-2.7437568-1.9117814-3.4490774-3.1024651-1.1681367-1.9780636-.7756158-3.9296596 1.2142136-5.0035093l.0607868-.0322713.0956516-.0486343c3.1913579-1.5800829 9.894708-.74632 14.1124405 1.4880257zm-13.9078829 2.8248245c-.3303829.1721004-.6090471.3696083-.8357115.5889015l-.0558327.0554207.0097314.0149376c.6256085.9519655 1.6250445 1.8454766 2.8642279 2.5373673l.100997.0556546.0945314.0507785c3.856392 2.0429253 10.2528414 2.4989881 13.325287.8947863.2971404-.1554707.5543684-.3249927.7711432-.5066959l.0638183-.0548745.0220149-.0200716-.0432323-.0546255c-.5839731-.7267026-1.4414831-1.4194223-2.5045869-2.0108838l-.1069931-.0588061-.101543-.0545074c-4.0893202-2.1663191-10.6720356-2.9681814-13.6038516-1.4373817zm1.2347994-10.4888762-8.8797806 3.6609721 2.2207971.9140259 8.7689355-3.7073875z" fill="#fff" transform="translate(-14 -12)"/></svg>