<svg height="104" viewBox="0 0 94 104" width="94" xmlns="http://www.w3.org/2000/svg"><path d="m33.9123007 33.1710067.553869 2.5064458-7.9927889.0001658c-2.2333599 0-4.0927246 1.0734767-5.2095128 3.0077703-1.1165717 1.9340771-1.1165717 4.0810305 0 6.0153242l37.5194934 64.9852942c1.1165717 1.933861 2.9759364 3.007337 5.2092963 3.007337 2.2335765 0 4.0927246-1.073476 5.2095128-3.007337l37.5192765-64.9852942c1.116572-1.9342937 1.116572-4.0812471 0-6.0153242-1.116788-1.9342936-2.976152-3.0077703-5.209296-3.0077703l-7.7121034-.0002043.1004794-.2381268.0311494-.0760476.0367479-.0957803c.2489941-.6751768.3097295-1.3991884.1846443-2.0964526h7.3590824c3.128826 0 5.815225 1.5511589 7.379855 4.2611623 1.54777 2.6807452 1.564236 5.7458003.049397 8.4351417l-.049397.0866217-37.5192773 64.9852946c-1.5646296 2.70957-4.2510283 4.260773-7.380071 4.260773-3.0971137 0-5.7605708-1.519707-7.3318245-4.17819l-.0482465-.082583-37.5192769-64.9852946c-1.5644131-2.7100035-1.5644131-5.812193 0-8.5217634 1.5484497-2.6823503 4.1963163-4.2292165 7.2844229-4.2611623zm10.4191694 10.9607216c.676987 0 1.2879233.4511117 1.4432764 1.1103403 1.9271859 8.1828986 9.1971522 14.3021598 17.9351706 14.4400935l.2492166.0021155.2454168-.0015815c8.7537789-.121677 16.040565-6.2464997 17.9706485-14.4406275.1522394-.6438977.7383872-1.0892458 1.3965318-1.1096115l.0471279-.0007288h8.8752686c.8751168 0 1.5602129.7489775 1.4889919 1.6153968l-.0044499.0457061-6.3828429 27.5386395-20.3402933 35.2303853c-.6890986 1.194284-1.7524895 1.836789-3.1094765 1.882147l-.0756897.001905h-.0777092c-1.4041446 0-2.5074739-.62188-3.2234954-1.816654l-.03938-.066965-20.6205551-35.7157272-6.0641513-27.0537306c-.0980583-.8703457.569642-1.6343292 1.4385021-1.6604148l.0459122-.0006881zm-.0416401 1.5455091h-2.5775217l.0019022.0327989 6.6725971 38.38235 13.6753497 23.6863807.0328279.055929c.4254887.709983 1.0063604 1.048821 1.8350544 1.065531h.1201175l.0556855-.001433c.7963819-.029336 1.3618174-.363776 1.7792707-1.055837l.0318213-.053942 13.6993235-23.7284011 6.5470958-38.3526385.0016103-.030738h-2.4322793l-.04629.1914098c-2.2173396 8.8664648-10.1433336 15.2319284-19.3912695 15.3596189l-.2835083.0019565c-9.3694442 0-17.4356218-6.4047481-19.6752607-15.3614208zm19.9811809 32.7147751.1304303.0015243.0901037.0019571c2.1350266.0557473 4.4518923.7809957 6.7790511 2.1758159l.0983363.0593346.130533.0799839.1154593.0720237.0441563.028955.047478.0331138.037273.0277653.0327493.0259312.0327844.0276526.0325001.0293914.0312402.0304805.0119568.0123418c.2297596.2411116.3746788.6275911-.14304 1.1906526-1.7667734 1.9215105-4.3449975 3.1402213-7.1829788 3.2509007l-.0860783.0030144-.1134976.0029286-.0997684.0017688-.0338628.0001579-.0697211-.0011025-.0695691.0011025-.0338628-.0001579-.0997684-.0017688-.1134976-.0029286c-2.8718914-.0891451-5.4844375-1.3129954-7.2690571-3.2539151-.4734067-.5148684-.3927528-.8820889-.1998093-1.1255271l.0218779-.0265405.0230859-.0259839.0237623-.0249429.0312402-.0304805.0325001-.0293914.0327844-.0276526.0327493-.0259312.037273-.0277653.047478-.0331138.0441563-.028955.1154593-.0720237.130533-.0799839c2.3601952-1.4335924 4.71229-2.178618 6.8773874-2.2351505l.0901037-.0019571.1304303-.0015243.087696.0003811.0270472.0005008.0271992-.0005008zm-.0024791.7716063-.0677005.0003605-.041448.0007633-.1094678-.0011238-.1189077.0014526-.0867184.0018761-.0915754.0028301c-1.5893259.0567156-3.283108.5116758-4.9985381 1.3497257 1.2252877 1.6523553 3.1902394 2.7232989 5.4053234 2.7232989 2.2150259 0 4.1799326-1.0708874 5.4051699-2.7233423-1.6714355-.8164518-3.3206873-1.2689866-4.8707822-1.3443594l-.1254646-.0052846-.0903279-.0027874-.0823642-.0018278zm-23.2435462-33.4863243h-5.4217101l5.9625497 26.6009342 5.8233313 10.0862581-6.3576181-36.5716556c-.003331-.0387416-.0055025-.0772724-.0065528-.1155367zm51.3937386-.0000095h-5.566097c-.0006246.0223637-.0016328.0448185-.0030323.0673531l-.0035821.0481931-6.2401755 36.5537944 5.5362205-9.5888923zm-28.1928874 21.9106959.0338628.0001579.0997684.0017688.1134976.0029286c2.8718914.0891451 5.4844375 1.3129954 7.2690571 3.2539151.5087926.5533535.3775998.9361616.1548455 1.1780515l-.0237623.0249429-.0312402.0304805-.0325001.0293914-.0327844.0276526-.0327493.0259312-.037273.0277653-.047478.0331138-.0441563.028955-.1154593.0720236-.130533.079984c-2.3601952 1.4335924-4.71229 2.178618-6.8773874 2.2351505l-.0901037.0019571-.1304303.0015243-.087696-.0003811-.0271992-.0005009-.0270472.0005009-.087696.0003811-.1304303-.0015243c-2.1898667-.0379272-4.5745154-.7836042-6.9674911-2.2371076l-.130533-.079984-.1154593-.0720236-.0441563-.028955-.047478-.0331138-.037273-.0277653-.0327493-.0259312-.0327844-.0276526-.0325001-.0293914-.0312402-.0304805-.0237623-.0249429-.0230859-.0259839-.0289717-.0356134c-.1877567-.243455-.260659-.6079422.2069031-1.1164542 1.7846196-1.9409197 4.3971657-3.16477 7.2690571-3.2539151l.1134976-.0029286.0997684-.0017688.0338628-.0001579.0695691.0011025zm-.0663375 2.2049044c-2.2150346 0-4.1799481 1.0708958-5.4051744 2.723346 1.702428.8316115 3.3817074 1.2856676 4.9562194 1.3481819l.1240844.0041217.0886396.0019519.1270882.0014717.067731-.0002488.0412958-.0007648.0305927.0006398.0789968.0003738.119018-.0013424.0867184-.0018761.0915761-.0028302c1.5893375-.0567161 3.2831321-.5116823 4.9985374-1.3497256-1.2252877-1.6523554-3.1902394-2.7232989-5.4053234-2.7232989zm37.3522187-31.8680348c1.429931 0 2.548235.645546 3.263309 1.8840397.702091 1.2163777.715046 2.4833074.037634 3.7014905l-.037634.0663975-15.4119667 26.6935044 1.1271448-4.8633988 1.3742991-2.3801894-.8455046.0985927.4204252-1.8139423 1.5851792-.2934399 1.8110723-3.1372719-2.7762617.7561688.4886069-2.1084804 3.8332273-1.324342 2.4914967-4.3159956-5.58898 2.4661962.6041895-2.6067049 7.260596-3.8010586 2.365893-4.0974889c.352339-.6111259.431816-1.1915006.237131-1.7885503l-8.931231 5.6638624.1773952-.7644364.0109846-.1128266.0037774-.0522686c.0401176-.6444228-.1613515-1.2444261-.5242951-1.7137983l6.4203989-4.7001543h-5.9367139l-4.2874455 3.7204084h-.017346l2.1845623-5.1763134zm-66.5487225.0000219.8635204 3.9071376-2.8256519-2.4512545h-5.9403952l6.4559288 4.7238068c-.363301.4788508-.5573649 1.0879441-.5021685 1.7342507l.0068714.0693853.0062541.0555099.1782018.7952235-8.9750641-5.6892424c-.1905708.5942344-.1104444 1.1713608.2405957 1.7792383l2.3739059 4.1117817 7.2568857 3.7972421.5818629 2.5958851-5.5644593-2.4541586 2.4904139 4.3136135 3.7836847 1.3064429.4724631 2.1074499-2.7114415-.7381055 1.8104227 3.135756 1.5005712.2774078.4075445 1.8180641-.7486656-.087332 1.1917608 2.0642578 1.0668632 4.7594947-15.1726113-26.2799489c-.7148571-1.2384937-.7148571-2.5291778 0-3.767888.7023044-1.2163778 1.7931491-1.8605987 3.1867761-1.8840178zm28.5390489-14.442568.0378598.000671 5.5189119.2150176.0811925.0042814c.4051058.0269518.7968549.1368268 1.1523747.3186806-.2558589.2065818-.4366623.51402-.4656536.8943352l-.0030051.0523102-1.2895017 33.1010601c-1.4483293.3825576-2.9650126.5854274-4.5226058.5854274-.918625 0-1.8229156-.0705459-2.7072732-.2068693l1.3302881-34.1268833.0021967-.0368092c.0363392-.450941.412932-.799572.8652157-.8012217zm-.8680204-10.6823044c.3703288.0056411.7361508.0829054 1.0772819.2244483l.0727143.0313118-.0376108.035231c-.2228827.2180231-.3701935.5210068-.3782491.8816009l-.000156.0545177.1399773 8.424556c-1.0014083-.0016123-1.8353857.7765456-1.9004156 1.778314l-.0026079.0502722-1.3245076 33.9780333c-.8092288-.1741904-1.5992364-.4039407-2.3654857-.6853871l-1.5788791-33.3438069-.0040839-.070026-.0030902-.0406436-.0036019-.038043-.1710553-10.3001381.00015-.0368703c.0112501-.4522145.3678409-.821219.8192641-.8480422l.0378328-.0014377 5.4763981-.0909946.0610299-.0028957zm8.6131798 12.0017771.0177842.0129194.9135399 1.0465466.0468661.0554483c.2297062.2804584.3898281.6085679.4705367.9573751l.01508.0700294.011092.0596458.009553.0599776.0095496.0735308.007227.0739282.0023828.0312779.0020119.033533.0024454.0594384.0008989.0518459-.0002511.0519522-.0016541.0595079-1.1473446 29.443991c-.656207.3122264-1.3338689.585037-2.0297117.8156663l1.2761895-32.7507269.0018867-.0233127c.0236094-.1903913.2409245-.2825045.3919178-.1825742zm-17.6741539-3.0743288.0188406.01136 1.0006689.9639996.0501622.0498006c.3124845.3197434.5255955.7210778.6167352 1.1551722.0115619.0551086.0211632.110749.0287572.1668201l.0098797.084417.005107.0594558.0039439.0660322 1.5561797 32.8632527c-.7078636-.3129976-1.3922636-.6712637-2.04928-1.0714598l-1.6152992-34.1099204-.0001571-.0225659c.0065552-.1922063.2153366-.3030664.3744619-.2163641zm27.2705944-2.6766878c.0314147.0178178.0624768.0361961.093015.0552543-.2711684.1856528-.4755947.47761-.5347427.8540825l-.0071577.051859-3.9883173 33.5766166c-1.1176043 1.0956501-2.3776254 2.0414482-3.746754 2.8092585l1.1244685-28.8656771.0019538-.0702316.0004326-.0654784-.000639-.0562229c-.0017693-.0906427-.0071443-.1808496-.0160549-.2704668-.0666247-.670657-.3307637-1.3058889-.7617668-1.8241806l-.0504698-.0592793-.3804904-.4394777c.1320721-.7639264.5545086-1.4480987 1.1803982-1.9078091l.0578721-.0414595.0548391-.0374546 5.3540353-3.5846472.0482783-.0312151c.5024622-.3137235 1.1132846-.3533637 1.5710997-.093471zm-28.3633639 1.9520117.0743281.0291383-.0359684.0359417c-.2159919.2247479-.3538172.5320916-.3507233.892788l.0015288.054501 1.5795614 33.358736c-1.0412012-.7417107-2.0005161-1.5944821-2.8598647-2.5429158l-5.6870193-25.5440229-.250763-5.297059-.0010826-.0368551c-.0025295-.4523171.3426541-.8321218.7930874-.8727172l.0377745-.002592 5.5168856-.261267.0812835-.0027441c.3789555-.0075827.7523114.0577855 1.100972.1890681zm29.3444903-1.0448019.0174007.0146009.8286885 1.11693.0444332.0619781c.1589867.2295228.27458.4836303.3432338.7497598.0598334.2330799.0838986.4757698.0697984.7194043l-.0061169.0812346-.0069874.0657819-3.0451663 25.637891c-.6562633 1.4132271-1.4908038 2.7199761-2.4727023 3.89413l3.820643-32.1659788.0037225-.0230066c.0384619-.1869627.2603926-.2618257.4030528-.1527252zm-40.0878466 3.9165184.0197496.0077486 1.1529009.780404.0499811.0348301c.4323476.3102238.7461256.758677.8896765 1.2709674l.0170535.0643634.015202.064505 5.4804708 24.7920673c-1.1901812-1.7519065-2.078411-3.7359328-2.5841997-5.8835292-.149835-.6358131-.5425831-1.1612952-1.0644212-1.4980675l-4.3054689-19.3342585-.0040154-.0222182c-.0264525-.1908777.1611882-.3360286.3330708-.2768124zm21.6892546 22.3167856-.0022342.0366505-.080104 2.0543404c-.0172783.4425243.3176352.8173195.7542079.8525533l.036611.0021443.0367144.0006409c.4260227-.0019017.7810364-.3293898.8169283-.7537689l.0023325-.0376908.0792096-2.0543405c.0178861-.4548166-.3360022-.8380891-.7908188-.8546976-.4421514-.0174026-.8165736.3171447-.8528467.7541684zm11.4362982-1.8976714-.0046623.0325532-.1060387.8862537c-.0383273.3285016.1877676.6274501.5092335.6828687l.0324582.0047221.0327797.0030186c.3157536.020772.5969199-.200527.6510512-.511926l.004782-.0325288.1047612-.8865092c.0408824-.3394517-.2018569-.6472195-.5416918-.6875908-.3288725-.0390691-.627833.1867625-.682673.5091385zm13.8064256-18.3885466.0475775.0009787c.5069071.0201827.9930175.3506874 1.2635821.8541964l.024728.0477066 2.0079195 4.0202709c-.3415641.0915818-.6492952.3232741-.8209618.6901737l-.0216113.0486229-4.8671842 11.5341778-2.611316.0000911-.0630628.0008521-.0578871.0024213c-.8057026.0425746-1.5269151.4519443-1.9617687 1.0817909l1.3945254-11.7425373 1.8786877-4.4520211.025539-.0582041c.2278953-.5007359.6254015-.9043738 1.1224426-1.1393759l.0577887-.0263632 1.3928862-.6137643.0752039-.0318548c.3024203-.1231259.6237121-.1946787.9499584-.2126096l.0816568-.0033644zm-48.1614436-2.5632488c.0354936.0064131.0708412.013469.1057512.0214222-.1943959.2649688-.2905706.6081698-.221583.9830202l.0104374.0513078 4.1676285 18.7148097c-.0524287-.0048981-.1052283-.0081956-.1583366-.0098497l-.0798863-.0012433-7.1693177-.0000911-2.5394328-11.4916269-.0150419-.0716512c-.1556702-.7890888.0113601-1.6068794.4630292-2.2707647l.0418439-.0599242.0422151-.0575254 3.8660523-5.1543452.0341339-.0440959c.3702116-.4634086.9336806-.7033625 1.4525068-.6094423zm52.0452367 8.5734439.0135913.0209302.3038345.6085502.0391608.0813184c.1009854.2180499.1744188.4454952.2201535.6772913.0074549.0378492.0141696.075814.0200834.1138672.031805.2025095.0426382.4076861.0323725.6122246l-.0056918.0876107-.0061429.0673597-.003953.0363078c-.0098972.0860153-.0235592.1717333-.0409776.256787l-.0158317.0727118-.0176723.0724075-.019416.0717227c-.00778.0273807-.0159609.05468-.0245311.0818625l-.0247747.0750601-.0221416.0611623-.0248943.0658113-.0268859.0656276-3.4000967 8.057319h-2.1275438l4.6982499-11.1337069.0105251-.0220816c.0869461-.1625037.3170654-.1763484.4225824-.0301434zm-25.7725894 7.5207904-.0021443.036641-.0472703 1.1872503c-.0161596.4422758.3184213.8167013.7554459.8529745l.0366505.0022342.0366137.0006299c.4248795-.0020349.7798605-.3298628.8157515-.7540333l.0023324-.037671.0459927-1.1872503c.0178861-.454689-.3360022-.8374504-.7908188-.8552087-.4425244-.0172783-.8173195.3175142-.8525533.7544334zm17.3403879-3.3708989-.0158479.0351756-.459927 1.0886215c-.170027.4050862.0083684.8699707.401673 1.0574746l.0352576.0158161.035847.0141736c.3958484.1459885.8391383-.0341616 1.021468-.4152692l.0158479-.0351962.4586494-1.0886216c.1763054-.4168727-.0191636-.8973686-.435653-1.0732907-.4045897-.1708957-.8694601.0086804-1.057315.4011163zm-33.9708288-3.1186148-.0366898.0009617c-.4421514.0208832-.7864583.3868225-.7848812.825162l.0009612.0366901.0563411 1.1867393c.0208832.4421514.3867015.7863373.8250345.7848684l.0366898-.0009485.0366236-.0025427c.4241538-.0388059.749148-.395761.7482367-.8215659l-.0009404-.0377434-.056341-1.1868671c-.0208832-.4421514-.3867015-.7863373-.8250345-.7847539zm-10.683334-.1957974c-.4314746.0972696-.7069139.5168645-.6298268.9479167l.0074754.0369681.2615602 1.1589266c.0972696.4314746.5167247.7068159.9477894.629839l.0369696-.0074654.0366048-.0091309c.4104114-.1122534.6680167-.519921.5932141-.9387745l-.0074675-.0369795-.2615824-1.1590523c-.1000487-.4438025-.5409565-.7224224-.9847368-.6222478zm37.4501627-4.4135949-.0059626.0362161-.1711128 1.1758054c-.0623014.4381637.2313085.8455114.6621474.9272673l.0362162.006053.0363472.0044537c.4227647.0423883.8100685-.2465382.8901008-.6646334l.0062573-.0372208.1698422-1.175939c.065316-.4503284-.2466241-.8679845-.697093-.9331868-.4382941-.06344-.8460314.2303417-.9267427.6611845zm-17.6208485-1.5781455c-.4426486.007334-.797854.3625057-.809788.8006262l-.0001944.0366964.0196746 1.1878891c.0074583.4427729.3625125.7979817.8007442.8097982l.0367061.0001843.0366793-.0014104c.4250843-.0256918.7608398-.3725805.7730697-.7981628l.0002335-.0377494-.0196746-1.1878891c-.0076655-.4549445-.3826337-.8175202-.8374504-.8099825zm5.4860894-12.9750416.0184267.0122013.9687075.9927238.0462891.0487622c.3027364.3282327.5036547.7347362.5819534 1.1704679l.0113409.0690355.0080366.059044c.0031522.0256669.005883.0514167.008189.0772746l.0044893.0585332.0030241.0587579.0015998.0598189.1026294 6.177963-1.9973631-.0777992-.1407402-8.4806563.0005478-.0226547c.0126333-.1927053.2268471-.2971647.3828697-.2034721z" fill="#fff" transform="translate(-17 -12)"/></svg>