<svg height="68" viewBox="0 0 116 68" width="116" xmlns="http://www.w3.org/2000/svg"><path d="m63.9998692 30.464c31.8117146 0 57.6001308 15.0439842 57.6001308 33.6000981 0 18.5558523-25.7884162 33.5998365-57.6001308 33.5998365-31.8111913 0-57.5998692-15.0439842-57.5998692-33.5998365 0-18.5561139 25.7886779-33.6000981 57.5998692-33.6000981zm-.0465807 2.2282829c-29.5138225 0-53.4395355 14.0406681-53.4395355 31.3597775 0 17.3193712 23.925713 31.3595159 53.4395355 31.3595159 29.5140842 0 53.4397975-14.0401447 53.4397975-31.3595159 0-17.3191094-23.9257133-31.3597775-53.4397975-31.3597775zm-.0057572 2.2282828c27.6683908 0 50.1773187 13.0663996 50.1773187 29.1267843 0 16.0601231-22.5089279 29.1267843-50.1773187 29.1267843-27.6676057 0-50.1770572-13.0666612-50.1770572-29.1267843 0-16.0603847 22.5094515-29.1267843 50.1770572-29.1267843zm-4.7692803 1.4257178c-.8905787.0493221-1.7742346.1123085-2.6503109.1885852l-.4374035.0392442v10.1198425c0 17.449727-7.9123045 32.6291721-19.5599953 40.3851987 5.2025199 2.014077 11.1198614 3.4722366 17.4863735 4.2232095 3.6717139-11.1002167 4.8244581-21.0981778 5.1613362-27.157011l.0300224-.5649789.0184257-.3742119c.2946118-6.168951.2784624-15.1222438-.0484481-26.8598783zm9.6984217.0090066-.0394108 1.4631679-.0347391 1.3769077c-.2657838 10.9065909-.2404786 19.2050976.0759155 24.8955202l.0212279.3686136.0227861.3703007c.3886238 6.1207726 1.5937059 15.7783329 5.1285371 26.4519809 6.3634426-.7643868 12.2746207-2.235725 17.4672238-4.2623803-11.5269157-7.6800581-19.3935128-22.6313594-19.549692-39.8572251l-.0023685-.522687v-10.0502803c-1.0196228-.0962021-2.0497987-.1743738-3.08948-.2339183zm-19.1525508 1.0609048c-20.0388593 3.4762978-34.6593334 14.099948-34.6593334 26.6311551 0 5.7221539 3.0486636 11.04658 8.2697803 15.4743386 14.8450156-5.5454757 25.7677438-22.1994434 26.3895531-42.1054937zm28.5816306.0235218c.6283544 19.8541536 11.5040034 36.4692468 26.2958555 42.0471456 5.196148-4.4208395 8.228928-9.7323529 8.228928-15.4395123 0-12.5030735-14.555247-23.1071457-34.5247835-26.6076333z" fill="#fff" transform="translate(-6 -30)"/></svg>