<svg height="20" viewBox="0 0 80 20" width="80" xmlns="http://www.w3.org/2000/svg"><path d="m82.1331018 27.5500752-.3487688 2.4912056c2.0511956-1.7712301 3.8999741-2.6199325 5.6201614-2.6199325 2.5 0 3.8764045 1.3764045 3.5112359 3.9325843l-1.4606741 10.3089887h-4.1292135l1.2921348-9.1853932c.1404495-1.2359551-.0280899-1.5449438-.8707865-1.5449438-1.3097336 0-2.5365316.7464213-4.3934582 2.1844127l-1.1964294 8.5459243h-4.1573034l2.752809-19.6629213h4.1573034l-.6741573 4.8876404c-.0307678.2205021-.06528.4419403-.1028533.6624348zm22.0691452 10.8263293.280899 2.6404494c-1.741573.7303371-4.213483.9831461-6.0955056.9831461-5.4213483 0-7.0786516-2.5561798-6.488764-7.5561798.6741573-5.5617977 2.9494382-7.0224719 8.0337079-7.0224719 5.1123597 0 6.3483147 1.8258427 5.9269667 4.7752809-.393259 2.6966292-2.106742 3.5955056-5.674158 3.8483146l-4.1011233.3089888c.0561797 1.9662921 1.0393258 2.3314607 2.7808988 2.3314607 1.3483145 0 3.6797755-.1123596 5.3370785-.3089888zm-7.8651683-4.4662921 3.230337-.3089888c1.4044943-.1123596 2.1067413-.4213483 2.2752813-1.7977528.112359-1.2921348-.449439-1.3764045-2.1910116-1.3483146-2.1348315 0-2.8370787.6460674-3.3146067 3.4550562zm15.3617193-3.8631635c1.924747-1.7149167 3.866662-2.6256006 5.761876-2.6256006 2.275281 0 3.792135 1.3483146 3.398877 3.9325843l-1.460675 10.3089887h-4.129213l1.264045-9.0730337c.168539-1.3202247-.02809-1.6853932-.926966-1.6573033-1.264045.0280899-2.5.7584269-4.325843 2.1910112l-1.179775 8.5393258h-4.157304l1.938202-13.8483146h4.129214l-.312437 2.2323414zm14.502853 6.8617182-.679179 4.7542542h-4.129214l2.780899-19.6629213h4.157304l-1.676346 11.7344163c2.519003-1.382662 4.619339-3.5073745 5.215672-5.9198096h4.241573c-.786517 2.9494382-2.5 4.9438203-4.550562 6.3764045l3.707865 7.4719101h-4.325843l-2.44382-5.730337c-.756792.3513677-1.539591.6767287-2.298349.9760828zm14.011832 4.7542542h-4.129213l1.938202-13.8483146h4.129213zm15.424832-10.8988764-8.595506 7.9213484h7.58427l-.393259 2.977528h-12.44382l.393258-2.977528h-.028089l8.623595-7.9213484h-7.331461l.393259-2.9494382h12.162921z" fill="#00363d" fill-rule="evenodd" transform="translate(-76 -22)"/></svg>