<svg height="64" viewBox="0 0 64 64" width="64" xmlns="http://www.w3.org/2000/svg"><g fill="none" fill-rule="evenodd"><path d="m0 0h64v64h-64z"/><path d="m24.5969995 10.7366115c.1811558.2091984.2675273.4554132.2675273.7010672 0 .4262488-.2462148.8311852-.6870459 1.0117801-7.7554856 3.1082515-13.2344659 10.7050156-13.2344659 19.5519226 0 9.1310075 5.8228954 16.9158175 13.9564463 19.8411015l.2471749.0871539c.5782402.1951771.8670799.8457675.6427384 1.4167166-.172743.4262489-.5782402.6937761-1.0112193.6937761-.1160967 0-.2243415-.0213124-.3404382-.0577679-9.1071432-3.1514373-15.66352355-11.8104583-15.66352355-21.9809802 0-9.7650246 6.05049025-18.1424971 14.60855765-21.5687526.4262488-.1733038.9102656-.0431858 1.2142483.3039827zm15.6562324-.3830631c.1301181 0 .2602362.0213124.3903543.0723501 8.5580673 3.4256947 14.6152878 11.8104583 14.6152878 21.5754829 0 6.5053426-2.6814418 12.3892593-7.0045025 16.6175358-.4239587.4107786-1.1054892.4053555-1.4933193-.0362772l-.1039921-.1224445c-.3466077-.4122275-.3034219-1.0190712.0869323-1.4026952 3.9102723-3.82334 6.346621-9.15762 6.346621-15.0561189 0-8.8396159-5.4862714-16.43638-13.2423179-19.5519226-.6670924-.271259-.8934251-1.0833562-.4790607-1.6529956l.0528119-.0671428c.2170504-.2456539.5204723-.375772.8311852-.375772zm-8.2529173 15.8864516c.8210876 0 1.486137.6655378 1.486137 1.4864516s-.6650494 1.4864516-1.486137 1.4864516-1.4867662-.6655378-1.4867662-1.4864516.6656786-1.4864516 1.4867662-1.4864516zm1.1188592-17.43664206v3.70107386l2.9088435-3.38306978h.0072819l.0972333.01791915c.5032352.09521369 1.2624986.27469628 2.2777901.53844777l-4.1863123 4.85646456h4.0005058v2.2296775h-12.4490322v-2.2296775h4.0455638l-4.2313703-4.85646456.0906572-.02556255.1408249-.03813056c.4923431-.13047667 1.2139521-.29470127 2.1648269-.49267381l2.9670988 3.38306978v-3.70836496l.2053772-.00382875.6523226.00030175c.3405657.00170494.7766953.00531098 1.3083888.0108181z" fill="#ecb731"/><path d="m32 3.2c15.8812689 0 28.8 12.9188613 28.8 28.7997098 0 8.6102524-3.8001048 16.3452008-9.8070216 21.6341734-.3737999.3291097-.7557258.6506737-1.1521626.9571462-.1822341.143032-.3659037.283966-.5510088.422768l2.3027282 2.772736c.4082718.4904727.7571091.9082678 1.0325243 1.235797.3830631.4626753.3252952 1.1423874-.1374091 1.5254265-.4627044.3824783-1.1418983.324714-1.5249614-.1374005l-2.2879644-2.7446859c-.3666563-.4406711-.758016-.9113367-1.1687933-1.4057098-.2469044.1596233-.4967734.3139203-.7466423.4630261-4.3236568 2.5881837-9.3734371 4.0770132-14.759289 4.0770132-1.1446169 0-2.2816881-.0673311-3.3885767-.2019932-1.7883188-.209539-3.5307832-.5833426-5.198952-1.1068998-11.6992382-3.665481-20.2124713-14.6021384-20.2124713-27.4913972 0-15.72204 12.6690438-28.54103638 28.3246825-28.7958441zm-1.1399545 49.6916393-1.7712244 4.4615682h-.0072911l-.0117061.0296568c.1652962.0191194.3311147.0360616.4976878.050489.5466956.0502575 1.0939496.0859961 1.6406452.100515l.3170857.0082467c.1577298.0036587.3149369.0062721.4747574.0062721.0828329 0 .1654793-.0004042.2479676-.00121l1.204483-3.9286599c-.2882369-.0592309-.5781316-.1250777-.8692083-.1980162-.5719203-.1476664-1.1469718-.3224704-1.7231968-.5288617zm13.9722192.1600961-.1514951.043289c-1.5397443.4357172-3.9900384.9620456-6.8496187.9620456-.7118469 0-1.4535325-.0336047-2.2115234-.1089341l-1.0644105 3.4720866c3.6634453-.3662414 7.0996074-1.5015302 10.1392998-3.2530677l.101176-.0586126c.2083381-.1201832.4113076-.2419771.6116063-.3663026-.189668-.2287623-.381478-.4588153-.5750344-.6905042zm-12.8322647-46.6001225c-1.2727069 0-2.5233526.09089089-3.7456621.27816337l-.4570255.07475579c-.8166929.12773774-1.6201342.3001379-2.4052624.51720045l-.15678.04400801c-10.8099424 2.96519098-18.7836571 12.88936688-18.7836571 24.63398028 0 11.493326 7.6280511 21.2376918 18.085629 24.4329504.4601401.1440714.9208387.273624 1.3960562.3886578h.0067011c.3110806.076353.6235734.1469484.9381014.211307l.0424599-.1062382 1.9365852-4.8822029c-.2560352-.1263453-.5123131-.2600665-.769707-.4016003-1.7274296-.9613033-3.4335467-2.2692143-5.0308582-4.0185171-4.3292301-4.7560398-5.6309716-10.8351336-3.5709558-16.6753037 1.698826-4.8216597 5.4285034-8.5945228 9.0791005-9.165472 3.2450998-.50589 5.9125202.0072911 7.9220592 1.5322525 1.5973115 1.2075181 2.6741507 2.9927156 3.1581675 5.2047228.0707922.3275386.1300627.6665989.1782053 1.016787l.0063663.0481278c.3340414-.0032107.6848425.0048855 1.0501132.0271512l.1222897.0079506c.6219868.0358924 1.0774001.6068057.9977588 1.2214629-.0711027.5324102-.5121733.9256173-1.0421356.9390179l-.0279733.0003532h-.0723501c-3.0280494-.1878742-5.3124068.6505496-6.2159422 2.3273972-.7012747 1.3097414-.4389379 2.9305894.6814362 4.2465529l.2904089.3371328c1.7575299 2.0474548 6.028725 7.1544478 9.9336695 11.8387083l.0185255-.0083492.0264287.0622758 1.612218 1.934923c.1942787-.1433304.3869462-.2881891.5787239-.4338105l.0072595-.0072594c.374143-.3021032.7410266-.6114659 1.1012091-.928088 5.3038968-4.677854 8.6572238-11.5290646 8.6572238-19.1508898 0-10.708751-6.620657-19.9058688-15.9909863-23.69137343-1.0794306-.43891527-2.1806398-.80579484-3.3248474-1.08667828h-.0072595c-.0863694-.02382576-.1759652-.04789971-.2666364-.06974l-.1365447-.03077494c-.4794615-.11056645-.9702311-.21480045-1.4625386-.29763985l-.1641461-.02680007c-1.3670182-.23006755-2.7636328-.34510133-4.1954281-.34510133zm3.1783126 18.5913709c-1.5255222-1.1491893-3.6287237-1.5249613-6.2742709-1.1127338-2.8553064.4481221-5.9557059 3.700513-7.3724225 7.7336123-1.0482357 2.9854245-2.0381425 8.8255946 3.1301248 14.5003129 6.4477093 7.0787351 14.7397873 6.091257 18.6651919 5.080558-.1699216-.2047196-.3402349-.4096908-.5106476-.6133707-.294526-.3528676-.5892134-.7057352-.883889-1.0574775l-.109751.0155174c-.6883897.0951234-1.5899634.1784575-2.6345591.1784575-3.2383695.00056-7.8513916-.8009-11.7549337-4.5378686-5.0252496-4.812686-4.5490848-9.9893661-3.9399976-12.4015981.173424-.688488.8875053-1.0698943 1.5418628-.8581735l.0218567.0072977.0032105.0019629c.4456158.2781397.666171.8171819.5244936 1.3346123-.5081335 1.8642778-1.0095367 6.1761215 3.3488578 10.3494342 3.808263 3.6467249 8.500194 4.0531735 11.309105 3.8930612l-1.5085395-1.8020022c-2.2273799-2.6573681-4.1181805-4.897462-5.0175686-5.9363667-1.7279904-1.994271-2.1110535-4.6323616-.9831766-6.7359922l.029968-.0546851c.5047302-.9078806 1.7624308-2.5242168 4.5886626-3.1689002.1036166-.0235727.2095406-.0457908.317738-.0665937-.0426897-.3172101-.1033407-.6553772-.1856458-1.0048044-.3180041-1.2938896-.9685944-2.7319187-2.3056698-3.7442597z" fill="#00363d"/></g></svg>